<svg width="109" height="109" viewBox="0 0 109 109" fill="none" xmlns="http://www.w3.org/2000/svg">
<g opacity="0.5" clip-path="url(#clip0_96_1481)">
<path d="M78.03 54.3499C78.1515 54.3499 78.25 54.2514 78.25 54.1299C78.25 54.0084 78.1515 53.9099 78.03 53.9099C77.9085 53.9099 77.81 54.0084 77.81 54.1299C77.81 54.2514 77.9085 54.3499 78.03 54.3499Z" fill="black"/>
<path d="M76.86 61.7701C76.9815 61.7701 77.08 61.6716 77.08 61.5501C77.08 61.4286 76.9815 61.3301 76.86 61.3301C76.7385 61.3301 76.64 61.4286 76.64 61.5501C76.64 61.6716 76.7385 61.7701 76.86 61.7701Z" fill="black"/>
<path d="M73.45 68.46C73.5715 68.46 73.67 68.3615 73.67 68.24C73.67 68.1185 73.5715 68.02 73.45 68.02C73.3285 68.02 73.23 68.1185 73.23 68.24C73.23 68.3615 73.3285 68.46 73.45 68.46Z" fill="black"/>
<path d="M68.14 73.7701C68.2615 73.7701 68.36 73.6716 68.36 73.5501C68.36 73.4286 68.2615 73.3301 68.14 73.3301C68.0185 73.3301 67.92 73.4286 67.92 73.5501C67.92 73.6716 68.0185 73.7701 68.14 73.7701Z" fill="black"/>
<path d="M61.45 77.18C61.57 77.18 61.67 77.08 61.67 76.96C61.67 76.84 61.57 76.74 61.45 76.74C61.33 76.74 61.23 76.84 61.23 76.96C61.24 77.08 61.33 77.18 61.45 77.18Z" fill="black"/>
<path d="M54.03 78.3499C54.1515 78.3499 54.25 78.2514 54.25 78.1299C54.25 78.0084 54.1515 77.9099 54.03 77.9099C53.9085 77.9099 53.81 78.0084 53.81 78.1299C53.81 78.2514 53.9085 78.3499 54.03 78.3499Z" fill="black"/>
<path d="M46.62 77.18C46.74 77.18 46.84 77.08 46.84 76.96C46.84 76.84 46.74 76.74 46.62 76.74C46.5 76.74 46.4 76.84 46.4 76.96C46.4 77.08 46.5 77.18 46.62 77.18Z" fill="black"/>
<path d="M39.93 73.7801C40.057 73.7801 40.16 73.6771 40.16 73.5501C40.16 73.423 40.057 73.3201 39.93 73.3201C39.803 73.3201 39.7 73.423 39.7 73.5501C39.7 73.6771 39.803 73.7801 39.93 73.7801Z" fill="black"/>
<path d="M34.62 68.49C34.76 68.49 34.87 68.38 34.87 68.24C34.87 68.1 34.76 67.99 34.62 67.99C34.48 67.99 34.37 68.1 34.37 68.24C34.37 68.38 34.48 68.49 34.62 68.49Z" fill="black"/>
<path d="M31.21 61.8C31.3481 61.8 31.46 61.6881 31.46 61.55C31.46 61.412 31.3481 61.3 31.21 61.3C31.072 61.3 30.96 61.412 30.96 61.55C30.96 61.6881 31.072 61.8 31.21 61.8Z" fill="black"/>
<path d="M30.03 54.3799C30.17 54.3799 30.28 54.2699 30.28 54.1299C30.28 53.9899 30.17 53.8799 30.03 53.8799C29.89 53.8799 29.78 53.9899 29.78 54.1299C29.79 54.2699 29.9 54.3799 30.03 54.3799Z" fill="black"/>
<path d="M31.21 46.99C31.3591 46.99 31.48 46.8691 31.48 46.72C31.48 46.5708 31.3591 46.45 31.21 46.45C31.0609 46.45 30.94 46.5708 30.94 46.72C30.94 46.8691 31.0609 46.99 31.21 46.99Z" fill="black"/>
<path d="M34.62 40.29C34.77 40.29 34.89 40.17 34.89 40.02C34.89 39.87 34.77 39.75 34.62 39.75C34.47 39.75 34.35 39.87 34.35 40.02C34.35 40.17 34.47 40.29 34.62 40.29Z" fill="black"/>
<path d="M39.93 34.99C40.0791 34.99 40.2 34.8691 40.2 34.72C40.2 34.5708 40.0791 34.45 39.93 34.45C39.7809 34.45 39.66 34.5708 39.66 34.72C39.66 34.8691 39.7809 34.99 39.93 34.99Z" fill="black"/>
<path d="M46.62 31.57C46.77 31.57 46.89 31.45 46.89 31.3C46.89 31.15 46.77 31.03 46.62 31.03C46.47 31.03 46.35 31.15 46.35 31.3C46.35 31.46 46.47 31.57 46.62 31.57Z" fill="black"/>
<path d="M54.03 30.3799C54.17 30.3799 54.28 30.2699 54.28 30.1299C54.28 29.9899 54.17 29.8799 54.03 29.8799C53.89 29.8799 53.78 29.9899 53.78 30.1299C53.79 30.2699 53.9 30.3799 54.03 30.3799Z" fill="black"/>
<path d="M61.45 31.5601C61.59 31.5601 61.7 31.4501 61.7 31.3101C61.7 31.1701 61.59 31.0601 61.45 31.0601C61.31 31.0601 61.2 31.1701 61.2 31.3101C61.2 31.4501 61.31 31.5601 61.45 31.5601Z" fill="black"/>
<path d="M68.14 34.97C68.28 34.97 68.39 34.86 68.39 34.72C68.39 34.58 68.28 34.47 68.14 34.47C68 34.47 67.89 34.58 67.89 34.72C67.89 34.85 68 34.97 68.14 34.97Z" fill="black"/>
<path d="M73.45 40.26C73.58 40.26 73.68 40.16 73.68 40.03C73.68 39.9 73.58 39.8 73.45 39.8C73.32 39.8 73.22 39.9 73.22 40.03C73.22 40.16 73.32 40.26 73.45 40.26Z" fill="black"/>
<path d="M76.86 46.94C76.9815 46.94 77.08 46.8415 77.08 46.72C77.08 46.5985 76.9815 46.5 76.86 46.5C76.7385 46.5 76.64 46.5985 76.64 46.72C76.64 46.8415 76.7385 46.94 76.86 46.94Z" fill="black"/>
<path d="M84.03 54.8799C84.4442 54.8799 84.78 54.5441 84.78 54.1299C84.78 53.7157 84.4442 53.3799 84.03 53.3799C83.6158 53.3799 83.28 53.7157 83.28 54.1299C83.28 54.5441 83.6158 54.8799 84.03 54.8799Z" fill="black"/>
<path d="M83.09 62.3401C83.5042 62.3401 83.84 62.0043 83.84 61.5901C83.84 61.1759 83.5042 60.8401 83.09 60.8401C82.6758 60.8401 82.34 61.1759 82.34 61.5901C82.34 62.0043 82.6758 62.3401 83.09 62.3401Z" fill="black"/>
<path d="M80.32 69.3201C80.72 69.3201 81.05 68.9901 81.05 68.5901C81.05 68.1901 80.72 67.8601 80.32 67.8601C79.92 67.8601 79.59 68.1901 79.59 68.5901C79.59 68.9901 79.92 69.3201 80.32 69.3201Z" fill="black"/>
<path d="M75.9 75.3999C76.3 75.3999 76.63 75.0699 76.63 74.6699C76.63 74.2699 76.3 73.9399 75.9 73.9399C75.5 73.9399 75.17 74.2699 75.17 74.6699C75.17 75.0699 75.5 75.3999 75.9 75.3999Z" fill="black"/>
<path d="M70.11 80.2C70.51 80.2 70.84 79.87 70.84 79.47C70.84 79.07 70.51 78.74 70.11 78.74C69.71 78.74 69.38 79.07 69.38 79.47C69.38 79.87 69.71 80.2 70.11 80.2Z" fill="black"/>
<path d="M63.31 83.3999C63.71 83.3999 64.04 83.0699 64.04 82.6699C64.04 82.2699 63.71 81.9399 63.31 81.9399C62.91 81.9399 62.58 82.2699 62.58 82.6699C62.57 83.0699 62.9 83.3999 63.31 83.3999Z" fill="black"/>
<path d="M55.92 84.8201C56.3342 84.8201 56.67 84.4843 56.67 84.0701C56.67 83.6559 56.3342 83.3201 55.92 83.3201C55.5058 83.3201 55.17 83.6559 55.17 84.0701C55.17 84.4843 55.5058 84.8201 55.92 84.8201Z" fill="black"/>
<path d="M48.41 84.3501C48.8242 84.3501 49.16 84.0143 49.16 83.6001C49.16 83.1859 48.8242 82.8501 48.41 82.8501C47.9958 82.8501 47.66 83.1859 47.66 83.6001C47.66 84.0143 47.9958 84.3501 48.41 84.3501Z" fill="black"/>
<path d="M41.26 82.03C41.6742 82.03 42.01 81.6942 42.01 81.28C42.01 80.8658 41.6742 80.53 41.26 80.53C40.8458 80.53 40.51 80.8658 40.51 81.28C40.51 81.6942 40.8458 82.03 41.26 82.03Z" fill="black"/>
<path d="M34.91 78.01C35.33 78.01 35.68 77.67 35.68 77.24C35.68 76.81 35.34 76.47 34.91 76.47C34.49 76.47 34.14 76.81 34.14 77.24C34.14 77.67 34.49 78.01 34.91 78.01Z" fill="black"/>
<path d="M29.76 72.53C30.18 72.53 30.53 72.19 30.53 71.76C30.53 71.34 30.19 70.99 29.76 70.99C29.34 71 29 71.34 29 71.77C29 72.19 29.34 72.53 29.76 72.53Z" fill="black"/>
<path d="M26.14 65.9599C26.57 65.9599 26.92 65.6099 26.92 65.1799C26.92 64.7499 26.57 64.3999 26.14 64.3999C25.71 64.3999 25.36 64.7499 25.36 65.1799C25.36 65.6099 25.71 65.9599 26.14 65.9599Z" fill="black"/>
<path d="M24.27 58.6701C24.7008 58.6701 25.05 58.3209 25.05 57.8901C25.05 57.4593 24.7008 57.1101 24.27 57.1101C23.8392 57.1101 23.49 57.4593 23.49 57.8901C23.49 58.3209 23.8392 58.6701 24.27 58.6701Z" fill="black"/>
<path d="M24.27 51.1701C24.7118 51.1701 25.07 50.8119 25.07 50.3701C25.07 49.9282 24.7118 49.5701 24.27 49.5701C23.8281 49.5701 23.47 49.9282 23.47 50.3701C23.47 50.8119 23.8281 51.1701 24.27 51.1701Z" fill="black"/>
<path d="M26.14 43.89C26.58 43.89 26.94 43.53 26.94 43.09C26.94 42.65 26.58 42.29 26.14 42.29C25.7 42.29 25.34 42.65 25.34 43.09C25.34 43.53 25.7 43.89 26.14 43.89Z" fill="black"/>
<path d="M29.76 37.2999C30.2 37.2999 30.56 36.94 30.56 36.5C30.56 36.06 30.2 35.7 29.76 35.7C29.32 35.7 28.96 36.06 28.96 36.5C28.97 36.94 29.32 37.2999 29.76 37.2999Z" fill="black"/>
<path d="M34.91 31.82C35.35 31.82 35.71 31.46 35.71 31.02C35.71 30.58 35.35 30.22 34.91 30.22C34.47 30.22 34.11 30.58 34.11 31.02C34.11 31.46 34.47 31.82 34.91 31.82Z" fill="black"/>
<path d="M41.26 27.7899C41.7018 27.7899 42.06 27.4318 42.06 26.9899C42.06 26.5481 41.7018 26.1899 41.26 26.1899C40.8182 26.1899 40.46 26.5481 40.46 26.9899C40.46 27.4318 40.8182 27.7899 41.26 27.7899Z" fill="black"/>
<path d="M48.41 25.4601C48.8518 25.4601 49.21 25.1019 49.21 24.6601C49.21 24.2183 48.8518 23.8601 48.41 23.8601C47.9682 23.8601 47.61 24.2183 47.61 24.6601C47.61 25.1019 47.9682 25.4601 48.41 25.4601Z" fill="black"/>
<path d="M55.92 24.9699C56.3508 24.9699 56.7 24.6207 56.7 24.1899C56.7 23.7591 56.3508 23.4099 55.92 23.4099C55.4892 23.4099 55.14 23.7591 55.14 24.1899C55.14 24.6207 55.4892 24.9699 55.92 24.9699Z" fill="black"/>
<path d="M63.31 26.3801C63.74 26.3801 64.09 26.0301 64.09 25.6001C64.09 25.1701 63.74 24.8201 63.31 24.8201C62.88 24.8201 62.53 25.1701 62.53 25.6001C62.53 26.0301 62.87 26.3801 63.31 26.3801Z" fill="black"/>
<path d="M70.11 29.59C70.54 29.59 70.89 29.24 70.89 28.81C70.89 28.38 70.54 28.03 70.11 28.03C69.68 28.03 69.33 28.38 69.33 28.81C69.33 29.24 69.68 29.59 70.11 29.59Z" fill="black"/>
<path d="M75.9 34.3601C76.32 34.3601 76.67 34.0201 76.67 33.5901C76.67 33.1601 76.33 32.8201 75.9 32.8201C75.47 32.8201 75.13 33.1601 75.13 33.5901C75.13 34.0201 75.48 34.3601 75.9 34.3601Z" fill="black"/>
<path d="M80.32 40.4499C80.74 40.4499 81.09 40.1099 81.09 39.6799C81.09 39.2499 80.75 38.9099 80.32 38.9099C79.9 38.9099 79.55 39.2499 79.55 39.6799C79.55 40.1099 79.9 40.4499 80.32 40.4499Z" fill="black"/>
<path d="M83.09 47.4199C83.5042 47.4199 83.84 47.0841 83.84 46.6699C83.84 46.2557 83.5042 45.9199 83.09 45.9199C82.6758 45.9199 82.34 46.2557 82.34 46.6699C82.34 47.0841 82.6758 47.4199 83.09 47.4199Z" fill="black"/>
<path d="M90.03 55.3999C90.73 55.3999 91.29 54.8299 91.29 54.1399C91.29 53.4399 90.72 52.8799 90.03 52.8799C89.33 52.8799 88.77 53.4499 88.77 54.1399C88.77 54.8299 89.34 55.3999 90.03 55.3999Z" fill="black"/>
<path d="M89.25 62.8801C89.95 62.8801 90.51 62.3101 90.51 61.6201C90.51 60.9201 89.94 60.3601 89.25 60.3601C88.55 60.3601 87.99 60.9301 87.99 61.6201C87.98 62.3201 88.55 62.8801 89.25 62.8801Z" fill="black"/>
<path d="M86.92 70.04C87.6159 70.04 88.18 69.4759 88.18 68.78C88.18 68.0841 87.6159 67.52 86.92 67.52C86.2241 67.52 85.66 68.0841 85.66 68.78C85.66 69.4759 86.2241 70.04 86.92 70.04Z" fill="black"/>
<path d="M83.16 76.56C83.86 76.56 84.42 75.99 84.42 75.3C84.42 74.6 83.85 74.04 83.16 74.04C82.46 74.04 81.9 74.61 81.9 75.3C81.89 75.99 82.46 76.56 83.16 76.56Z" fill="black"/>
<path d="M78.12 82.1499C78.82 82.1499 79.38 81.5799 79.38 80.8899C79.38 80.1899 78.81 79.6299 78.12 79.6299C77.42 79.6299 76.86 80.1999 76.86 80.8899C76.86 81.5799 77.43 82.1499 78.12 82.1499Z" fill="black"/>
<path d="M72.03 86.57C72.73 86.57 73.29 86 73.29 85.31C73.29 84.61 72.72 84.05 72.03 84.05C71.33 84.05 70.77 84.62 70.77 85.31C70.77 86.01 71.34 86.57 72.03 86.57Z" fill="black"/>
<path d="M65.16 89.6401C65.86 89.6401 66.42 89.0701 66.42 88.3801C66.42 87.6801 65.85 87.1201 65.16 87.1201C64.46 87.1201 63.9 87.6901 63.9 88.3801C63.9 89.0701 64.46 89.6401 65.16 89.6401Z" fill="black"/>
<path d="M57.8 91.1999C58.5 91.1999 59.06 90.6299 59.06 89.9399C59.06 89.2399 58.49 88.6799 57.8 88.6799C57.1 88.6799 56.54 89.2499 56.54 89.9399C56.53 90.6299 57.1 91.1999 57.8 91.1999Z" fill="black"/>
<path d="M50.27 91.2199C50.9769 91.2199 51.55 90.6468 51.55 89.9399C51.55 89.233 50.9769 88.6599 50.27 88.6599C49.5631 88.6599 48.99 89.233 48.99 89.9399C48.99 90.6468 49.5631 91.2199 50.27 91.2199Z" fill="black"/>
<path d="M42.91 89.6501C43.62 89.6501 44.19 89.0801 44.19 88.3701C44.19 87.6601 43.62 87.0901 42.91 87.0901C42.2 87.0901 41.63 87.6601 41.63 88.3701C41.63 89.0801 42.2 89.6501 42.91 89.6501Z" fill="black"/>
<path d="M36.03 86.59C36.74 86.59 37.31 86.02 37.31 85.31C37.31 84.6 36.74 84.03 36.03 84.03C35.32 84.03 34.75 84.6 34.75 85.31C34.75 86.02 35.33 86.59 36.03 86.59Z" fill="black"/>
<path d="M29.95 82.1801C30.67 82.1801 31.25 81.6001 31.25 80.8801C31.25 80.1601 30.67 79.5801 29.95 79.5801C29.23 79.5801 28.65 80.1601 28.65 80.8801C28.65 81.6001 29.23 82.1801 29.95 82.1801Z" fill="black"/>
<path d="M24.91 76.59C25.63 76.59 26.21 76.01 26.21 75.29C26.21 74.57 25.63 73.99 24.91 73.99C24.19 73.99 23.61 74.57 23.61 75.29C23.61 76.01 24.19 76.59 24.91 76.59Z" fill="black"/>
<path d="M21.15 70.07C21.87 70.07 22.45 69.49 22.45 68.77C22.45 68.05 21.87 67.47 21.15 67.47C20.43 67.47 19.85 68.05 19.85 68.77C19.85 69.49 20.43 70.07 21.15 70.07Z" fill="black"/>
<path d="M18.82 62.9301C19.55 62.9301 20.13 62.3401 20.13 61.6201C20.13 60.8901 19.54 60.3101 18.82 60.3101C18.09 60.3101 17.51 60.9001 17.51 61.6201C17.51 62.3401 18.1 62.9301 18.82 62.9301Z" fill="black"/>
<path d="M18.03 55.4501C18.76 55.4501 19.34 54.8601 19.34 54.1401C19.34 53.4101 18.75 52.8301 18.03 52.8301C17.3 52.8301 16.72 53.4201 16.72 54.1401C16.72 54.8601 17.31 55.4501 18.03 55.4501Z" fill="black"/>
<path d="M18.82 47.9601C19.55 47.9601 20.13 47.3701 20.13 46.6501C20.13 45.9201 19.54 45.3401 18.82 45.3401C18.09 45.3401 17.51 45.9301 17.51 46.6501C17.51 47.3701 18.1 47.9601 18.82 47.9601Z" fill="black"/>
<path d="M21.15 40.8199C21.89 40.8199 22.48 40.2199 22.48 39.4899C22.48 38.7599 21.88 38.1599 21.15 38.1599C20.42 38.1599 19.82 38.7599 19.82 39.4899C19.82 40.2199 20.41 40.8199 21.15 40.8199Z" fill="black"/>
<path d="M24.91 34.2999C25.65 34.2999 26.24 33.6999 26.24 32.9699C26.24 32.2299 25.64 31.6399 24.91 31.6399C24.17 31.6399 23.58 32.2399 23.58 32.9699C23.58 33.7099 24.18 34.2999 24.91 34.2999Z" fill="black"/>
<path d="M29.95 28.71C30.69 28.71 31.28 28.11 31.28 27.38C31.28 26.65 30.68 26.05 29.95 26.05C29.22 26.05 28.62 26.65 28.62 27.38C28.62 28.11 29.21 28.71 29.95 28.71Z" fill="black"/>
<path d="M36.03 24.2899C36.77 24.2899 37.36 23.6899 37.36 22.9599C37.36 22.2299 36.76 21.6299 36.03 21.6299C35.3 21.6299 34.7 22.2299 34.7 22.9599C34.7 23.6899 35.3 24.2899 36.03 24.2899Z" fill="black"/>
<path d="M42.91 21.2301C43.65 21.2301 44.24 20.6301 44.24 19.9001C44.24 19.1601 43.64 18.5701 42.91 18.5701C42.17 18.5701 41.58 19.1701 41.58 19.9001C41.58 20.6301 42.18 21.2301 42.91 21.2301Z" fill="black"/>
<path d="M50.27 19.64C50.9935 19.64 51.58 19.0535 51.58 18.33C51.58 17.6065 50.9935 17.02 50.27 17.02C49.5465 17.02 48.96 17.6065 48.96 18.33C48.96 19.0535 49.5465 19.64 50.27 19.64Z" fill="black"/>
<path d="M57.8 19.64C58.5235 19.64 59.11 19.0535 59.11 18.33C59.11 17.6065 58.5235 17.02 57.8 17.02C57.0765 17.02 56.49 17.6065 56.49 18.33C56.49 19.0535 57.0765 19.64 57.8 19.64Z" fill="black"/>
<path d="M65.16 21.2101C65.89 21.2101 66.47 20.6201 66.47 19.9001C66.47 19.1701 65.88 18.5901 65.16 18.5901C64.44 18.5901 63.85 19.1801 63.85 19.9001C63.85 20.6201 64.43 21.2101 65.16 21.2101Z" fill="black"/>
<path d="M72.03 24.2499C72.75 24.2499 73.33 23.6699 73.33 22.9499C73.33 22.2299 72.75 21.6499 72.03 21.6499C71.31 21.6499 70.73 22.2299 70.73 22.9499C70.74 23.6699 71.32 24.2499 72.03 24.2499Z" fill="black"/>
<path d="M78.12 28.6801C78.84 28.6801 79.42 28.1001 79.42 27.3801C79.42 26.6601 78.84 26.0801 78.12 26.0801C77.4 26.0801 76.82 26.6601 76.82 27.3801C76.83 28.1001 77.41 28.6801 78.12 28.6801Z" fill="black"/>
<path d="M83.16 34.2699C83.88 34.2699 84.46 33.6899 84.46 32.9699C84.46 32.2499 83.88 31.6699 83.16 31.6699C82.44 31.6699 81.86 32.2499 81.86 32.9699C81.86 33.6899 82.44 34.2699 83.16 34.2699Z" fill="black"/>
<path d="M86.92 40.77C87.6269 40.77 88.2 40.1969 88.2 39.49C88.2 38.783 87.6269 38.21 86.92 38.21C86.2131 38.21 85.64 38.783 85.64 39.49C85.64 40.1969 86.2131 40.77 86.92 40.77Z" fill="black"/>
<path d="M89.25 47.9301C89.9569 47.9301 90.53 47.357 90.53 46.6501C90.53 45.9432 89.9569 45.3701 89.25 45.3701C88.543 45.3701 87.97 45.9432 87.97 46.6501C87.97 47.357 88.543 47.9301 89.25 47.9301Z" fill="black"/>
<path d="M96.03 55.9301C97.02 55.9301 97.83 55.1301 97.83 54.1301C97.83 53.1401 97.03 52.3301 96.03 52.3301C95.04 52.3301 94.23 53.1301 94.23 54.1301C94.24 55.1301 95.04 55.9301 96.03 55.9301Z" fill="black"/>
<path d="M95.36 63.4301C96.3541 63.4301 97.16 62.6242 97.16 61.6301C97.16 60.636 96.3541 59.8301 95.36 59.8301C94.3659 59.8301 93.56 60.636 93.56 61.6301C93.56 62.6242 94.3659 63.4301 95.36 63.4301Z" fill="black"/>
<path d="M93.36 70.6901C94.3541 70.6901 95.16 69.8842 95.16 68.8901C95.16 67.896 94.3541 67.0901 93.36 67.0901C92.3659 67.0901 91.56 67.896 91.56 68.8901C91.56 69.8842 92.3659 70.6901 93.36 70.6901Z" fill="black"/>
<path d="M90.09 77.4701C91.08 77.4701 91.89 76.6701 91.89 75.6701C91.89 74.6801 91.09 73.8701 90.09 73.8701C89.09 73.8701 88.29 74.6701 88.29 75.6701C88.29 76.6701 89.1 77.4701 90.09 77.4701Z" fill="black"/>
<path d="M85.66 83.56C86.65 83.56 87.46 82.76 87.46 81.76C87.46 80.76 86.66 79.96 85.66 79.96C84.66 79.96 83.86 80.76 83.86 81.76C83.86 82.76 84.67 83.56 85.66 83.56Z" fill="black"/>
<path d="M80.22 88.7699C81.2141 88.7699 82.02 87.964 82.02 86.9699C82.02 85.9758 81.2141 85.1699 80.22 85.1699C79.2259 85.1699 78.42 85.9758 78.42 86.9699C78.42 87.964 79.2259 88.7699 80.22 88.7699Z" fill="black"/>
<path d="M73.94 92.9201C74.93 92.9201 75.74 92.1201 75.74 91.1201C75.74 90.1201 74.94 89.3201 73.94 89.3201C72.95 89.3201 72.14 90.1201 72.14 91.1201C72.14 92.1201 72.94 92.9201 73.94 92.9201Z" fill="black"/>
<path d="M67.01 95.87C68 95.87 68.81 95.07 68.81 94.07C68.81 93.08 68.01 92.27 67.01 92.27C66.02 92.27 65.21 93.07 65.21 94.07C65.22 95.07 66.02 95.87 67.01 95.87Z" fill="black"/>
<path d="M59.67 97.55C60.66 97.55 61.47 96.75 61.47 95.75C61.47 94.76 60.67 93.95 59.67 93.95C58.68 93.95 57.87 94.75 57.87 95.75C57.88 96.75 58.68 97.55 59.67 97.55Z" fill="black"/>
<path d="M52.15 97.89C53.14 97.89 53.95 97.09 53.95 96.09C53.95 95.09 53.15 94.29 52.15 94.29C51.16 94.29 50.35 95.09 50.35 96.09C50.35 97.09 51.16 97.89 52.15 97.89Z" fill="black"/>
<path d="M44.69 96.89C45.69 96.89 46.5 96.08 46.5 95.08C46.5 94.08 45.69 93.27 44.69 93.27C43.69 93.27 42.88 94.08 42.88 95.08C42.88 96.08 43.69 96.89 44.69 96.89Z" fill="black"/>
<path d="M37.53 94.57C38.53 94.57 39.34 93.76 39.34 92.76C39.34 91.76 38.53 90.95 37.53 90.95C36.53 90.95 35.72 91.76 35.72 92.76C35.71 93.76 36.53 94.57 37.53 94.57Z" fill="black"/>
<path d="M30.9 90.9999C31.9 90.9999 32.71 90.1899 32.71 89.1899C32.71 88.1899 31.9 87.3799 30.9 87.3799C29.9 87.3799 29.09 88.1899 29.09 89.1899C29.08 90.1899 29.9 90.9999 30.9 90.9999Z" fill="black"/>
<path d="M25.01 86.3199C26.02 86.3199 26.84 85.4999 26.84 84.4899C26.84 83.4799 26.02 82.6599 25.01 82.6599C24 82.6599 23.18 83.4799 23.18 84.4899C23.18 85.4999 24 86.3199 25.01 86.3199Z" fill="black"/>
<path d="M20.06 80.65C21.07 80.65 21.89 79.83 21.89 78.82C21.89 77.81 21.07 76.99 20.06 76.99C19.05 76.99 18.23 77.81 18.23 78.82C18.23 79.83 19.05 80.65 20.06 80.65Z" fill="black"/>
<path d="M16.19 74.19C17.2 74.19 18.02 73.37 18.02 72.36C18.02 71.35 17.2 70.53 16.19 70.53C15.18 70.53 14.36 71.35 14.36 72.36C14.36 73.37 15.18 74.19 16.19 74.19Z" fill="black"/>
<path d="M13.55 67.16C14.5717 67.16 15.4 66.3317 15.4 65.31C15.4 64.2882 14.5717 63.46 13.55 63.46C12.5283 63.46 11.7 64.2882 11.7 65.31C11.7 66.3317 12.5283 67.16 13.55 67.16Z" fill="black"/>
<path d="M12.2 59.75C13.2217 59.75 14.05 58.9218 14.05 57.9001C14.05 56.8783 13.2217 56.05 12.2 56.05C11.1782 56.05 10.35 56.8783 10.35 57.9001C10.35 58.9218 11.1782 59.75 12.2 59.75Z" fill="black"/>
<path d="M12.2 52.22C13.2217 52.22 14.05 51.3917 14.05 50.37C14.05 49.3483 13.2217 48.52 12.2 48.52C11.1782 48.52 10.35 49.3483 10.35 50.37C10.35 51.3917 11.1782 52.22 12.2 52.22Z" fill="black"/>
<path d="M13.55 44.8101C14.5717 44.8101 15.4 43.9818 15.4 42.9601C15.4 41.9384 14.5717 41.1101 13.55 41.1101C12.5283 41.1101 11.7 41.9384 11.7 42.9601C11.7 43.9818 12.5283 44.8101 13.55 44.8101Z" fill="black"/>
<path d="M16.19 37.7601C17.2118 37.7601 18.04 36.9318 18.04 35.9101C18.04 34.8883 17.2118 34.0601 16.19 34.0601C15.1683 34.0601 14.34 34.8883 14.34 35.9101C14.34 36.9318 15.1683 37.7601 16.19 37.7601Z" fill="black"/>
<path d="M20.06 31.3101C21.09 31.3101 21.92 30.4801 21.92 29.4501C21.92 28.4201 21.09 27.5901 20.06 27.5901C19.03 27.5901 18.2 28.4201 18.2 29.4501C18.19 30.4801 19.03 31.3101 20.06 31.3101Z" fill="black"/>
<path d="M25.01 25.6399C26.04 25.6399 26.87 24.8099 26.87 23.7799C26.87 22.7499 26.04 21.9199 25.01 21.9199C23.98 21.9199 23.15 22.7499 23.15 23.7799C23.15 24.8099 23.98 25.6399 25.01 25.6399Z" fill="black"/>
<path d="M30.9 20.94C31.9272 20.94 32.76 20.1072 32.76 19.08C32.76 18.0527 31.9272 17.22 30.9 17.22C29.8727 17.22 29.04 18.0527 29.04 19.08C29.04 20.1072 29.8727 20.94 30.9 20.94Z" fill="black"/>
<path d="M37.53 17.3799C38.56 17.3799 39.39 16.5499 39.39 15.5199C39.39 14.4899 38.56 13.6599 37.53 13.6599C36.5 13.6599 35.67 14.4899 35.67 15.5199C35.66 16.5399 36.5 17.3799 37.53 17.3799Z" fill="black"/>
<path d="M44.69 15.0401C45.7118 15.0401 46.54 14.2118 46.54 13.1901C46.54 12.1684 45.7118 11.3401 44.69 11.3401C43.6683 11.3401 42.84 12.1684 42.84 13.1901C42.84 14.2118 43.6683 15.0401 44.69 15.0401Z" fill="black"/>
<path d="M52.15 14.0301C53.1717 14.0301 54 13.2018 54 12.1801C54 11.1584 53.1717 10.3301 52.15 10.3301C51.1283 10.3301 50.3 11.1584 50.3 12.1801C50.3 13.2018 51.1283 14.0301 52.15 14.0301Z" fill="black"/>
<path d="M59.67 14.3599C60.6917 14.3599 61.52 13.5316 61.52 12.5099C61.52 11.4882 60.6917 10.6599 59.67 10.6599C58.6483 10.6599 57.82 11.4882 57.82 12.5099C57.82 13.5316 58.6483 14.3599 59.67 14.3599Z" fill="black"/>
<path d="M67.01 16.0401C68.0318 16.0401 68.86 15.2118 68.86 14.1901C68.86 13.1684 68.0318 12.3401 67.01 12.3401C65.9883 12.3401 65.16 13.1684 65.16 14.1901C65.16 15.2118 65.9883 16.0401 67.01 16.0401Z" fill="black"/>
<path d="M73.94 18.9801C74.95 18.9801 75.77 18.1601 75.77 17.1501C75.77 16.1401 74.95 15.3201 73.94 15.3201C72.93 15.3201 72.11 16.1401 72.11 17.1501C72.11 18.1601 72.93 18.9801 73.94 18.9801Z" fill="black"/>
<path d="M80.22 23.13C81.23 23.13 82.05 22.31 82.05 21.3C82.05 20.29 81.23 19.47 80.22 19.47C79.21 19.47 78.39 20.29 78.39 21.3C78.39 22.31 79.21 23.13 80.22 23.13Z" fill="black"/>
<path d="M85.66 28.3099C86.66 28.3099 87.47 27.4999 87.47 26.4999C87.47 25.4999 86.66 24.6899 85.66 24.6899C84.66 24.6899 83.85 25.4999 83.85 26.4999C83.85 27.4999 84.66 28.3099 85.66 28.3099Z" fill="black"/>
<path d="M90.09 34.4C91.0897 34.4 91.9 33.5897 91.9 32.59C91.9 31.5904 91.0897 30.78 90.09 30.78C89.0904 30.78 88.28 31.5904 88.28 32.59C88.28 33.5897 89.0904 34.4 90.09 34.4Z" fill="black"/>
<path d="M93.36 41.1901C94.36 41.1901 95.17 40.3801 95.17 39.3801C95.17 38.3801 94.36 37.5701 93.36 37.5701C92.36 37.5701 91.55 38.3801 91.55 39.3801C91.54 40.3801 92.36 41.1901 93.36 41.1901Z" fill="black"/>
<path d="M95.36 48.4401C96.3596 48.4401 97.17 47.6297 97.17 46.6301C97.17 45.6304 96.3596 44.8201 95.36 44.8201C94.3603 44.8201 93.55 45.6304 93.55 46.6301C93.55 47.6297 94.3603 48.4401 95.36 48.4401Z" fill="black"/>
<path d="M102.03 55.96C103.04 55.96 103.86 55.1401 103.86 54.1301C103.86 53.1201 103.04 52.3 102.03 52.3C101.02 52.3 100.2 53.1201 100.2 54.1301C100.2 55.1401 101.02 55.96 102.03 55.96Z" fill="black"/>
<path d="M101.44 63.4701C102.45 63.4701 103.27 62.6501 103.27 61.6401C103.27 60.6301 102.45 59.8101 101.44 59.8101C100.43 59.8101 99.61 60.6301 99.61 61.6401C99.61 62.6501 100.43 63.4701 101.44 63.4701Z" fill="black"/>
<path d="M99.69 70.7999C100.7 70.7999 101.52 69.9799 101.52 68.9699C101.52 67.9599 100.7 67.1399 99.69 67.1399C98.68 67.1399 97.86 67.9599 97.86 68.9699C97.86 69.9799 98.67 70.7999 99.69 70.7999Z" fill="black"/>
<path d="M96.8 77.7601C97.81 77.7601 98.63 76.9401 98.63 75.9301C98.63 74.9201 97.81 74.1001 96.8 74.1001C95.79 74.1001 94.97 74.9201 94.97 75.9301C94.97 76.9401 95.79 77.7601 96.8 77.7601Z" fill="black"/>
<path d="M92.87 84.2C93.8918 84.2 94.72 83.3717 94.72 82.35C94.72 81.3283 93.8918 80.5 92.87 80.5C91.8483 80.5 91.02 81.3283 91.02 82.35C91.02 83.3717 91.8483 84.2 92.87 84.2Z" fill="black"/>
<path d="M87.98 89.92C89.0017 89.92 89.83 89.0917 89.83 88.07C89.83 87.0482 89.0017 86.22 87.98 86.22C86.9583 86.22 86.13 87.0482 86.13 88.07C86.13 89.0917 86.9583 89.92 87.98 89.92Z" fill="black"/>
<path d="M82.25 94.8101C83.27 94.8101 84.1 93.9801 84.1 92.9601C84.1 91.9401 83.27 91.1101 82.25 91.1101C81.23 91.1101 80.4 91.9401 80.4 92.9601C80.4 93.9901 81.23 94.8101 82.25 94.8101Z" fill="black"/>
<path d="M75.83 98.7301C76.8407 98.7301 77.66 97.9108 77.66 96.9001C77.66 95.8894 76.8407 95.0701 75.83 95.0701C74.8193 95.0701 74 95.8894 74 96.9001C74 97.9108 74.8193 98.7301 75.83 98.7301Z" fill="black"/>
<path d="M68.87 101.61C69.88 101.61 70.7 100.79 70.7 99.78C70.7 98.77 69.88 97.95 68.87 97.95C67.86 97.95 67.04 98.77 67.04 99.78C67.04 100.79 67.86 101.61 68.87 101.61Z" fill="black"/>
<path d="M61.54 103.37C62.55 103.37 63.37 102.55 63.37 101.54C63.37 100.53 62.55 99.71 61.54 99.71C60.53 99.71 59.71 100.53 59.71 101.54C59.71 102.55 60.53 103.37 61.54 103.37Z" fill="black"/>
<path d="M54.03 103.96C55.04 103.96 55.86 103.14 55.86 102.13C55.86 101.12 55.04 100.3 54.03 100.3C53.02 100.3 52.2 101.12 52.2 102.13C52.2 103.14 53.02 103.96 54.03 103.96Z" fill="black"/>
<path d="M46.53 103.35C47.5296 103.35 48.34 102.54 48.34 101.54C48.34 100.54 47.5296 99.73 46.53 99.73C45.5303 99.73 44.72 100.54 44.72 101.54C44.72 102.54 45.5303 103.35 46.53 103.35Z" fill="black"/>
<path d="M39.2 101.6C40.2 101.6 41.01 100.79 41.01 99.79C41.01 98.79 40.2 97.98 39.2 97.98C38.2 97.98 37.39 98.79 37.39 99.79C37.39 100.79 38.2 101.6 39.2 101.6Z" fill="black"/>
<path d="M32.24 98.7001C33.2341 98.7001 34.04 97.8942 34.04 96.9001C34.04 95.906 33.2341 95.1001 32.24 95.1001C31.2459 95.1001 30.44 95.906 30.44 96.9001C30.44 97.8942 31.2459 98.7001 32.24 98.7001Z" fill="black"/>
<path d="M25.82 94.7499C26.8 94.7499 27.6 93.9499 27.6 92.9699C27.6 91.9899 26.8 91.1899 25.82 91.1899C24.84 91.1899 24.04 91.9899 24.04 92.9699C24.04 93.9499 24.84 94.7499 25.82 94.7499Z" fill="black"/>
<path d="M20.09 89.85C21.07 89.85 21.87 89.05 21.87 88.07C21.87 87.09 21.07 86.29 20.09 86.29C19.11 86.29 18.31 87.09 18.31 88.07C18.31 89.05 19.11 89.85 20.09 89.85Z" fill="black"/>
<path d="M15.2 84.1101C16.17 84.1101 16.96 83.3201 16.96 82.3501C16.96 81.3801 16.17 80.5901 15.2 80.5901C14.23 80.5901 13.44 81.3801 13.44 82.3501C13.44 83.3201 14.23 84.1101 15.2 84.1101Z" fill="black"/>
<path d="M11.27 77.6699C12.23 77.6699 13.02 76.8899 13.02 75.9199C13.02 74.9599 12.24 74.1699 11.27 74.1699C10.31 74.1699 9.52002 74.9499 9.52002 75.9199C9.52002 76.8899 10.3 77.6699 11.27 77.6699Z" fill="black"/>
<path d="M8.38 70.71C9.34 70.71 10.13 69.93 10.13 68.96C10.13 67.99 9.35 67.21 8.38 67.21C7.42 67.21 6.63 67.99 6.63 68.96C6.63 69.93 7.42 70.71 8.38 70.71Z" fill="black"/>
<path d="M6.63002 63.3699C7.59002 63.3699 8.36002 62.5999 8.36002 61.6399C8.36002 60.6799 7.59002 59.9099 6.63002 59.9099C5.67002 59.9099 4.90002 60.6799 4.90002 61.6399C4.90002 62.5999 5.67002 63.3699 6.63002 63.3699Z" fill="black"/>
<path d="M6.03001 55.8399C6.97441 55.8399 7.74001 55.0743 7.74001 54.1299C7.74001 53.1855 6.97441 52.4199 6.03001 52.4199C5.0856 52.4199 4.32001 53.1855 4.32001 54.1299C4.32001 55.0743 5.0856 55.8399 6.03001 55.8399Z" fill="black"/>
<path d="M6.62998 48.3299C7.57439 48.3299 8.33998 47.5643 8.33998 46.6199C8.33998 45.6755 7.57439 44.9099 6.62998 44.9099C5.68558 44.9099 4.91998 45.6755 4.91998 46.6199C4.91998 47.5643 5.68558 48.3299 6.62998 48.3299Z" fill="black"/>
<path d="M8.37999 41.0001C9.31999 41.0001 10.08 40.2401 10.08 39.3001C10.08 38.3601 9.31999 37.6001 8.37999 37.6001C7.43999 37.6001 6.67999 38.3601 6.67999 39.3001C6.68999 40.2401 7.44999 41.0001 8.37999 41.0001Z" fill="black"/>
<path d="M11.27 34.0399C12.21 34.0399 12.97 33.2799 12.97 32.3399C12.97 31.3999 12.21 30.6399 11.27 30.6399C10.33 30.6399 9.57001 31.3999 9.57001 32.3399C9.57001 33.2799 10.33 34.0399 11.27 34.0399Z" fill="black"/>
<path d="M15.2 27.62C16.14 27.62 16.9 26.86 16.9 25.92C16.9 24.98 16.14 24.22 15.2 24.22C14.26 24.22 13.5 24.98 13.5 25.92C13.5 26.86 14.26 27.62 15.2 27.62Z" fill="black"/>
<path d="M20.09 21.89C21.03 21.89 21.79 21.13 21.79 20.19C21.79 19.25 21.03 18.49 20.09 18.49C19.15 18.49 18.39 19.25 18.39 20.19C18.4 21.13 19.16 21.89 20.09 21.89Z" fill="black"/>
<path d="M25.82 17.0001C26.76 17.0001 27.52 16.2401 27.52 15.3001C27.52 14.3601 26.76 13.6001 25.82 13.6001C24.88 13.6001 24.12 14.3601 24.12 15.3001C24.12 16.2401 24.88 17.0001 25.82 17.0001Z" fill="black"/>
<path d="M32.24 13.0599C33.18 13.0599 33.94 12.2999 33.94 11.3599C33.94 10.4199 33.18 9.65991 32.24 9.65991C31.3 9.65991 30.54 10.4199 30.54 11.3599C30.55 12.2999 31.31 13.0599 32.24 13.0599Z" fill="black"/>
<path d="M39.2 10.18C40.14 10.18 40.9 9.42003 40.9 8.48003C40.9 7.54003 40.14 6.78003 39.2 6.78003C38.26 6.78003 37.5 7.54003 37.5 8.48003C37.51 9.42003 38.26 10.18 39.2 10.18Z" fill="black"/>
<path d="M46.53 8.44002C47.48 8.44002 48.24 7.67002 48.24 6.73002C48.24 5.78002 47.47 5.02002 46.53 5.02002C45.58 5.02002 44.82 5.79002 44.82 6.73002C44.81 7.67002 45.58 8.44002 46.53 8.44002Z" fill="black"/>
<path d="M54.03 7.83992C54.9744 7.83992 55.74 7.07433 55.74 6.12992C55.74 5.18551 54.9744 4.41992 54.03 4.41992C53.0856 4.41992 52.32 5.18551 52.32 6.12992C52.32 7.07433 53.0856 7.83992 54.03 7.83992Z" fill="black"/>
<path d="M61.54 8.44999C62.5 8.44999 63.27 7.67999 63.27 6.71999C63.27 5.75999 62.5 4.98999 61.54 4.98999C60.58 4.98999 59.81 5.75999 59.81 6.71999C59.81 7.67999 60.59 8.44999 61.54 8.44999Z" fill="black"/>
<path d="M68.87 10.23C69.83 10.23 70.62 9.44998 70.62 8.47998C70.62 7.51998 69.84 6.72998 68.87 6.72998C67.9 6.72998 67.12 7.50998 67.12 8.47998C67.12 9.44998 67.9 10.23 68.87 10.23Z" fill="black"/>
<path d="M75.83 13.1101C76.79 13.1101 77.58 12.3301 77.58 11.3601C77.58 10.4001 76.8 9.61011 75.83 9.61011C74.86 9.61011 74.08 10.3901 74.08 11.3601C74.08 12.3301 74.86 13.1101 75.83 13.1101Z" fill="black"/>
<path d="M82.25 17.06C83.22 17.06 84.01 16.27 84.01 15.3C84.01 14.33 83.22 13.54 82.25 13.54C81.28 13.54 80.49 14.33 80.49 15.3C80.49 16.27 81.27 17.06 82.25 17.06Z" fill="black"/>
<path d="M87.98 21.9699C88.96 21.9699 89.76 21.1699 89.76 20.1899C89.76 19.2099 88.96 18.4099 87.98 18.4099C87 18.4099 86.2 19.2099 86.2 20.1899C86.2 21.1699 86.99 21.9699 87.98 21.9699Z" fill="black"/>
<path d="M92.87 27.6999C93.85 27.6999 94.65 26.8999 94.65 25.9199C94.65 24.9399 93.85 24.1399 92.87 24.1399C91.89 24.1399 91.09 24.9399 91.09 25.9199C91.09 26.8999 91.88 27.6999 92.87 27.6999Z" fill="black"/>
<path d="M96.8 34.14C97.79 34.14 98.6 33.34 98.6 32.34C98.6 31.35 97.8 30.54 96.8 30.54C95.8 30.54 95 31.34 95 32.34C95.01 33.33 95.81 34.14 96.8 34.14Z" fill="black"/>
<path d="M99.69 41.11C100.69 41.11 101.5 40.3 101.5 39.3C101.5 38.3 100.69 37.49 99.69 37.49C98.69 37.49 97.88 38.3 97.88 39.3C97.87 40.3 98.68 41.11 99.69 41.11Z" fill="black"/>
<path d="M101.44 48.4401C102.44 48.4401 103.25 47.6301 103.25 46.6301C103.25 45.6301 102.44 44.8201 101.44 44.8201C100.44 44.8201 99.63 45.6301 99.63 46.6301C99.63 47.6301 100.44 48.4401 101.44 48.4401Z" fill="black"/>
<path d="M108.03 54.3699C108.16 54.3699 108.26 54.2699 108.26 54.1399C108.26 54.0099 108.16 53.9099 108.03 53.9099C107.9 53.9099 107.8 54.0099 107.8 54.1399C107.8 54.2599 107.91 54.3699 108.03 54.3699Z" fill="black"/>
<path d="M107.51 61.8999C107.65 61.8999 107.76 61.7899 107.76 61.6499C107.76 61.5099 107.65 61.3999 107.51 61.3999C107.37 61.3999 107.26 61.5099 107.26 61.6499C107.26 61.7899 107.37 61.8999 107.51 61.8999Z" fill="black"/>
<path d="M105.94 69.27C106.078 69.27 106.19 69.1581 106.19 69.02C106.19 68.8819 106.078 68.77 105.94 68.77C105.802 68.77 105.69 68.8819 105.69 69.02C105.69 69.1581 105.802 69.27 105.94 69.27Z" fill="black"/>
<path d="M103.37 76.3701C103.519 76.3701 103.64 76.2492 103.64 76.1001C103.64 75.951 103.519 75.8301 103.37 75.8301C103.221 75.8301 103.1 75.951 103.1 76.1001C103.1 76.2492 103.221 76.3701 103.37 76.3701Z" fill="black"/>
<path d="M99.83 83.02C99.9791 83.02 100.1 82.8991 100.1 82.75C100.1 82.6009 99.9791 82.48 99.83 82.48C99.6809 82.48 99.56 82.6009 99.56 82.75C99.56 82.8991 99.6809 83.02 99.83 83.02Z" fill="black"/>
<path d="M95.4 89.1101C95.5491 89.1101 95.67 88.9892 95.67 88.8401C95.67 88.6909 95.5491 88.5701 95.4 88.5701C95.2509 88.5701 95.13 88.6909 95.13 88.8401C95.13 88.9892 95.2509 89.1101 95.4 89.1101Z" fill="black"/>
<path d="M90.17 94.53C90.3191 94.53 90.44 94.4091 90.44 94.26C90.44 94.1109 90.3191 93.99 90.17 93.99C90.0209 93.99 89.9 94.1109 89.9 94.26C89.9 94.4091 90.0209 94.53 90.17 94.53Z" fill="black"/>
<path d="M84.23 99.1699C84.3791 99.1699 84.5 99.049 84.5 98.8999C84.5 98.7508 84.3791 98.6299 84.23 98.6299C84.0809 98.6299 83.96 98.7508 83.96 98.8999C83.96 99.049 84.0809 99.1699 84.23 99.1699Z" fill="black"/>
<path d="M77.71 102.94C77.8591 102.94 77.98 102.819 77.98 102.67C77.98 102.521 77.8591 102.4 77.71 102.4C77.5609 102.4 77.44 102.521 77.44 102.67C77.44 102.819 77.5609 102.94 77.71 102.94Z" fill="black"/>
<path d="M70.72 105.76C70.8691 105.76 70.99 105.639 70.99 105.49C70.99 105.341 70.8691 105.22 70.72 105.22C70.5709 105.22 70.45 105.341 70.45 105.49C70.45 105.639 70.5709 105.76 70.72 105.76Z" fill="black"/>
<path d="M63.41 107.56C63.55 107.56 63.66 107.45 63.66 107.31C63.66 107.17 63.55 107.06 63.41 107.06C63.27 107.06 63.16 107.17 63.16 107.31C63.16 107.45 63.27 107.56 63.41 107.56Z" fill="black"/>
<path d="M55.92 108.35C56.06 108.35 56.17 108.24 56.17 108.1C56.17 107.96 56.06 107.85 55.92 107.85C55.78 107.85 55.67 107.96 55.67 108.1C55.67 108.24 55.78 108.35 55.92 108.35Z" fill="black"/>
<path d="M48.39 108.07C48.52 108.07 48.62 107.97 48.62 107.84C48.62 107.71 48.52 107.61 48.39 107.61C48.26 107.61 48.16 107.71 48.16 107.84C48.16 107.97 48.26 108.07 48.39 108.07Z" fill="black"/>
<path d="M40.97 106.76C41.1 106.76 41.2 106.66 41.2 106.53C41.2 106.4 41.1 106.3 40.97 106.3C40.84 106.3 40.74 106.4 40.74 106.53C40.74 106.66 40.84 106.76 40.97 106.76Z" fill="black"/>
<path d="M33.81 104.43C33.937 104.43 34.04 104.327 34.04 104.2C34.04 104.073 33.937 103.97 33.81 103.97C33.683 103.97 33.58 104.073 33.58 104.2C33.58 104.327 33.683 104.43 33.81 104.43Z" fill="black"/>
<path d="M27.03 101.12C27.15 101.12 27.25 101.02 27.25 100.9C27.25 100.78 27.15 100.68 27.03 100.68C26.91 100.68 26.81 100.78 26.81 100.9C26.82 101.02 26.92 101.12 27.03 101.12Z" fill="black"/>
<path d="M20.79 96.91C20.9115 96.91 21.01 96.8115 21.01 96.69C21.01 96.5685 20.9115 96.47 20.79 96.47C20.6685 96.47 20.57 96.5685 20.57 96.69C20.57 96.8115 20.6685 96.91 20.79 96.91Z" fill="black"/>
<path d="M15.19 91.8399C15.3 91.8399 15.39 91.7499 15.39 91.6399C15.39 91.5299 15.3 91.4399 15.19 91.4399C15.08 91.4399 14.99 91.5299 14.99 91.6399C14.99 91.7599 15.08 91.8399 15.19 91.8399Z" fill="black"/>
<path d="M10.35 86.0699C10.46 86.0699 10.55 85.9799 10.55 85.8699C10.55 85.7599 10.46 85.6699 10.35 85.6699C10.24 85.6699 10.15 85.7599 10.15 85.8699C10.15 85.9799 10.24 86.0699 10.35 86.0699Z" fill="black"/>
<path d="M6.35998 79.6701C6.45998 79.6701 6.53998 79.5901 6.53998 79.4901C6.53998 79.3901 6.45998 79.3101 6.35998 79.3101C6.25998 79.3101 6.17998 79.3901 6.17998 79.4901C6.16998 79.5901 6.24998 79.6701 6.35998 79.6701Z" fill="black"/>
<path d="M3.28999 72.7899C3.38999 72.7899 3.46999 72.7099 3.46999 72.6099C3.46999 72.5099 3.38999 72.4299 3.28999 72.4299C3.18999 72.4299 3.10999 72.5099 3.10999 72.6099C3.10999 72.7099 3.18999 72.7899 3.28999 72.7899Z" fill="black"/>
<path d="M1.21003 65.5399C1.30944 65.5399 1.39003 65.4593 1.39003 65.3599C1.39003 65.2605 1.30944 65.1799 1.21003 65.1799C1.11062 65.1799 1.03003 65.2605 1.03003 65.3599C1.03003 65.4593 1.11062 65.5399 1.21003 65.5399Z" fill="black"/>
<path d="M0.17 58.07C0.26 58.07 0.34 58 0.34 57.9C0.34 57.8 0.27 57.73 0.17 57.73C0.07 57.73 0 57.81 0 57.9C0 57.99 0.07 58.07 0.17 58.07Z" fill="black"/>
<path d="M0.17 50.5299C0.26 50.5299 0.34 50.46 0.34 50.36C0.34 50.26 0.26 50.2 0.17 50.2C0.08 50.2 0 50.2699 0 50.3699C0 50.4699 0.07 50.5299 0.17 50.5299Z" fill="black"/>
<path d="M1.20998 43.07C1.29998 43.07 1.37998 43 1.37998 42.9C1.37998 42.81 1.30998 42.73 1.20998 42.73C1.10998 42.73 1.03998 42.8 1.03998 42.9C1.04998 43 1.11998 43.07 1.20998 43.07Z" fill="black"/>
<path d="M3.29 35.83C3.38 35.83 3.46 35.76 3.46 35.66C3.46 35.57 3.39 35.49 3.29 35.49C3.2 35.49 3.12 35.56 3.12 35.66C3.13 35.76 3.2 35.83 3.29 35.83Z" fill="black"/>
<path d="M6.36002 28.9299C6.44002 28.9299 6.51002 28.8599 6.51002 28.7799C6.51002 28.6999 6.44002 28.6299 6.36002 28.6299C6.28002 28.6299 6.21002 28.6999 6.21002 28.7799C6.21002 28.8599 6.27002 28.9299 6.36002 28.9299Z" fill="black"/>
<path d="M10.35 22.54C10.43 22.54 10.5 22.47 10.5 22.39C10.5 22.31 10.43 22.24 10.35 22.24C10.27 22.24 10.2 22.31 10.2 22.39C10.2 22.48 10.27 22.54 10.35 22.54Z" fill="black"/>
<path d="M15.19 16.77C15.27 16.77 15.34 16.7 15.34 16.62C15.34 16.54 15.27 16.47 15.19 16.47C15.11 16.47 15.04 16.54 15.04 16.62C15.04 16.7 15.11 16.77 15.19 16.77Z" fill="black"/>
<path d="M20.79 11.7299C20.87 11.7299 20.94 11.6599 20.94 11.5799C20.94 11.4999 20.87 11.4299 20.79 11.4299C20.71 11.4299 20.64 11.4999 20.64 11.5799C20.64 11.6599 20.71 11.7299 20.79 11.7299Z" fill="black"/>
<path d="M27.03 7.51997C27.11 7.51997 27.18 7.44997 27.18 7.36997C27.18 7.28997 27.11 7.21997 27.03 7.21997C26.95 7.21997 26.88 7.28997 26.88 7.36997C26.89 7.44997 26.95 7.51997 27.03 7.51997Z" fill="black"/>
<path d="M33.81 4.22989C33.9 4.22989 33.98 4.15989 33.98 4.05989C33.98 3.96989 33.91 3.88989 33.81 3.88989C33.71 3.88989 33.64 3.95989 33.64 4.05989C33.64 4.15989 33.71 4.22989 33.81 4.22989Z" fill="black"/>
<path d="M40.97 1.91007C41.0639 1.91007 41.14 1.83396 41.14 1.74007C41.14 1.64618 41.0639 1.57007 40.97 1.57007C40.8761 1.57007 40.8 1.64618 40.8 1.74007C40.8 1.83396 40.8761 1.91007 40.97 1.91007Z" fill="black"/>
<path d="M48.39 0.60001C48.4839 0.60001 48.56 0.523898 48.56 0.43001C48.56 0.336121 48.4839 0.26001 48.39 0.26001C48.2961 0.26001 48.22 0.336121 48.22 0.43001C48.22 0.523898 48.2961 0.60001 48.39 0.60001Z" fill="black"/>
<path d="M55.92 0.33C56.01 0.33 56.09 0.26 56.09 0.16C56.09 0.06 56.01 0 55.92 0C55.83 0 55.75 0.07 55.75 0.17C55.75 0.27 55.83 0.33 55.92 0.33Z" fill="black"/>
<path d="M63.41 1.14003C63.51 1.14003 63.59 1.06003 63.59 0.960029C63.59 0.860029 63.51 0.780029 63.41 0.780029C63.31 0.780029 63.23 0.860029 63.23 0.960029C63.23 1.05003 63.31 1.14003 63.41 1.14003Z" fill="black"/>
<path d="M70.72 2.9601C70.82 2.9601 70.9 2.8801 70.9 2.7801C70.9 2.6801 70.82 2.6001 70.72 2.6001C70.62 2.6001 70.54 2.6801 70.54 2.7801C70.54 2.8801 70.62 2.9601 70.72 2.9601Z" fill="black"/>
<path d="M77.71 5.77992C77.8094 5.77992 77.89 5.69933 77.89 5.59992C77.89 5.50051 77.8094 5.41992 77.71 5.41992C77.6106 5.41992 77.53 5.50051 77.53 5.59992C77.53 5.69933 77.6106 5.77992 77.71 5.77992Z" fill="black"/>
<path d="M84.23 9.56992C84.34 9.56992 84.43 9.47992 84.43 9.36992C84.43 9.25992 84.34 9.16992 84.23 9.16992C84.12 9.16992 84.03 9.25992 84.03 9.36992C84.03 9.47992 84.12 9.56992 84.23 9.56992Z" fill="black"/>
<path d="M90.17 14.2C90.28 14.2 90.37 14.11 90.37 14C90.37 13.89 90.28 13.8 90.17 13.8C90.06 13.8 89.97 13.89 89.97 14C89.97 14.11 90.06 14.2 90.17 14.2Z" fill="black"/>
<path d="M95.4 19.6399C95.52 19.6399 95.62 19.54 95.62 19.42C95.62 19.3 95.52 19.2 95.4 19.2C95.28 19.2 95.18 19.3 95.18 19.42C95.18 19.54 95.28 19.6399 95.4 19.6399Z" fill="black"/>
<path d="M99.83 25.73C99.95 25.73 100.05 25.63 100.05 25.51C100.05 25.39 99.95 25.29 99.83 25.29C99.71 25.29 99.61 25.39 99.61 25.51C99.61 25.64 99.71 25.73 99.83 25.73Z" fill="black"/>
<path d="M103.37 32.3899C103.492 32.3899 103.59 32.2915 103.59 32.1699C103.59 32.0484 103.492 31.95 103.37 31.95C103.249 31.95 103.15 32.0484 103.15 32.1699C103.15 32.2915 103.249 32.3899 103.37 32.3899Z" fill="black"/>
<path d="M105.94 39.48C106.07 39.48 106.17 39.38 106.17 39.25C106.17 39.12 106.07 39.02 105.94 39.02C105.81 39.02 105.71 39.12 105.71 39.25C105.71 39.38 105.81 39.48 105.94 39.48Z" fill="black"/>
<path d="M107.51 46.8499C107.64 46.8499 107.74 46.7499 107.74 46.6199C107.74 46.4899 107.64 46.3899 107.51 46.3899C107.38 46.3899 107.28 46.4899 107.28 46.6199C107.28 46.7499 107.38 46.8499 107.51 46.8499Z" fill="black"/>
</g>
<defs>
<clipPath id="clip0_96_1481">
<rect width="108.27" height="108.35" fill="white"/>
</clipPath>
</defs>
</svg>
