<svg width="59" height="59" viewBox="0 0 59 59" fill="none" xmlns="http://www.w3.org/2000/svg">
<path d="M4.47609 58.9993C3.96648 58.6673 3.73405 58.1998 3.62722 57.5922C2.44198 50.7905 1.23219 43.9918 0.0325099 37.1916C-0.111856 36.3777 0.224516 35.8235 1.04307 35.6691C3.08007 35.2866 5.11563 34.8898 7.16707 34.6069C9.17087 34.3313 10.8498 35.6344 11.2699 37.6491C11.3118 37.8511 11.3551 38.0532 11.4057 38.2913C12.7237 37.8382 13.9898 37.4023 15.1967 36.9881C15.0697 35.6936 14.8805 34.4453 14.8387 33.1897C14.7477 30.4448 15.4652 27.8774 16.7169 25.4471C19.0325 20.9445 21.3366 16.436 23.6695 11.942C23.902 11.4946 23.8803 11.167 23.6594 10.737C22.5391 8.55202 21.4463 6.35553 20.3578 4.1547C19.7572 2.93956 19.9348 1.7273 20.8068 0.862843C21.6224 0.0532278 22.8365 -0.16036 23.8919 0.354849C24.426 0.614619 24.9313 0.930672 25.4496 1.22508C26.4255 1.77925 26.7604 1.76193 27.6194 1.03747C28.8422 0.00560344 30.1833 -0.324881 31.6746 0.362065C32.0875 0.552563 32.4484 0.85707 32.8281 1.11684C33.4792 1.56278 33.983 1.55268 34.6168 1.07354C36.4199 -0.291688 37.8217 -0.345085 39.6393 1.03747C40.5372 1.72153 41.3269 1.82399 42.2422 1.15725C42.6277 0.875831 43.0665 0.668016 43.4881 0.438553C44.6791 -0.210871 45.8716 -0.0882022 46.7854 0.77048C47.6848 1.61473 47.9013 2.83565 47.3167 4.04646C46.2253 6.30934 45.1194 8.56501 43.9948 10.8106C43.8028 11.1945 43.797 11.4816 43.9948 11.8699C46.4519 16.7088 48.8902 21.5578 51.3243 26.4097C51.5552 26.8701 51.74 27.3593 51.9017 27.85C52.1125 28.4937 51.8295 29.094 51.2506 29.3249C50.6818 29.5529 50.0827 29.2903 49.7766 28.6741C47.2012 23.4888 44.6213 18.3049 42.0632 13.1095C41.8481 12.6723 41.6128 12.502 41.1147 12.5048C36.2741 12.5251 31.4321 12.5222 26.5915 12.5077C26.1396 12.5063 25.8841 12.6203 25.6632 13.0533C23.3707 17.5675 21.0536 22.0701 18.7351 26.5714C17.251 29.4534 16.7645 32.4768 17.3896 35.6676C17.4113 35.7802 17.4387 35.8928 17.4719 36.0024C17.4878 36.0558 17.5239 36.102 17.4993 36.0573C18.8463 35.7773 20.1427 35.3934 21.4651 35.2578C24.3596 34.9605 26.9582 35.8321 29.2926 37.5394C31.8652 39.4213 34.4248 41.3205 37.0205 43.1706C38.2794 44.0668 39.2914 45.0698 39.2697 46.7439C41.0165 46.9373 42.4862 46.5087 43.7176 45.2618C46.4028 42.5414 49.1126 39.8456 51.818 37.1454C53.2833 35.6835 55.0734 35.3371 56.7538 36.2016C57.7716 36.7255 58.4646 37.5394 58.7923 38.6507C58.8457 38.831 58.928 39.0028 58.9973 39.1789C58.9973 39.5627 58.9973 39.9466 58.9973 40.3305C58.7793 41.2123 58.4141 42.0147 57.8149 42.716C56.4189 44.3526 55.0561 46.0166 53.6586 47.6517C52.3608 49.1684 51.1366 50.7689 49.7001 52.1413C46.4274 55.2672 42.4385 56.6945 37.9228 56.6902C32.7559 56.6859 27.5876 56.6888 22.4208 56.6888C21.3712 56.6888 20.8284 56.289 20.8356 55.5256C20.8414 54.7621 21.3698 54.3855 22.4395 54.3855C27.6266 54.3855 32.8137 54.3927 37.9993 54.3826C42.3086 54.3739 46 52.8802 48.9105 49.6634C50.3657 48.0558 51.7285 46.3644 53.1288 44.7062C54.1697 43.4737 55.2221 42.2513 56.2327 40.9944C57.122 39.8889 56.6196 38.4096 55.2828 38.1037C54.5234 37.9291 53.9474 38.2725 53.4334 38.7892C50.7208 41.5081 47.9995 44.2198 45.2912 46.9445C44.2893 47.9518 43.13 48.7023 41.7297 48.9303C40.7523 49.0891 39.7418 49.0371 38.7457 49.0934C38.5493 49.1049 38.3039 49.1295 38.1696 49.2478C36.7953 50.4586 35.3155 50.499 33.7376 49.7096C31.8002 48.7384 29.834 47.8191 27.9254 46.793C26.6088 46.0844 25.2821 45.5879 23.7634 45.7828C23.6334 45.8001 23.4948 45.7756 23.362 45.7554C22.7903 45.6702 22.376 45.2156 22.3616 44.6643C22.3471 44.1246 22.7384 43.5935 23.3158 43.5473C24.7869 43.4319 26.2421 43.3496 27.6396 44.0827C30 45.321 32.3964 46.4899 34.8016 47.6416C35.1971 47.8306 35.7616 47.9432 36.1557 47.8119C37.1981 47.4641 37.2399 46.2013 36.2698 45.4898C33.4532 43.4232 30.6352 41.3551 27.8056 39.3059C25.6271 37.7285 23.1946 37.1209 20.5584 37.6967C19.2173 37.9897 17.9223 38.5063 16.6144 38.9436C15.0191 39.4776 13.4297 40.0332 11.794 40.596C12.0293 41.9411 12.256 43.2414 12.4841 44.5416C13.0225 47.6214 13.587 50.6967 14.0894 53.7822C14.3623 55.4592 13.382 57.1304 11.807 57.6889C11.0736 57.9486 10.2767 58.0381 9.5058 58.1897C8.09823 58.4653 6.68922 58.728 5.28165 58.9964C5.01458 58.9993 4.74606 58.9993 4.47609 58.9993ZM33.8733 10.2117C36.3116 10.2117 38.7485 10.203 41.1869 10.2203C41.5824 10.2232 41.7976 10.115 41.9751 9.73975C42.785 8.02527 43.6339 6.3281 44.4683 4.62373C44.7036 4.14171 44.9678 3.6698 45.1598 3.17191C45.2421 2.95976 45.1728 2.68989 45.1743 2.44599C44.9491 2.46764 44.6921 2.42868 44.503 2.52392C43.9385 2.80678 43.4217 3.19355 42.8442 3.44178C42.2913 3.6799 41.695 3.87906 41.1003 3.94833C39.9988 4.07388 39.1196 3.50239 38.2707 2.87317C37.328 2.17468 36.9469 2.19488 36.0229 2.90348C34.5562 4.02914 32.9595 4.05079 31.4566 2.96698C30.2107 2.06788 30.0505 2.07799 28.8104 3.04924C27.5154 4.06234 26.1295 4.19655 24.6729 3.42879C24.1806 3.17046 23.7201 2.84864 23.2191 2.6134C22.9939 2.50805 22.7023 2.54124 22.441 2.51238C22.4626 2.77648 22.4107 3.07521 22.5189 3.29746C23.5714 5.44922 24.6584 7.58366 25.7166 9.73253C25.8913 10.0861 26.0949 10.2275 26.5034 10.2246C28.9591 10.2016 31.4162 10.2117 33.8733 10.2117ZM2.47374 37.7458C3.58102 44.0178 4.6782 50.2378 5.78693 56.5214C7.50489 56.2053 9.16942 55.9369 10.8152 55.5819C11.5991 55.4116 11.9355 54.7261 11.7882 53.876C11.1487 50.2104 10.5034 46.5462 9.85949 42.882C9.59386 41.371 9.33256 39.86 9.05971 38.349C8.87347 37.3186 8.34221 36.7745 7.47024 36.8972C5.82302 37.1281 4.18736 37.4485 2.47374 37.7458Z" fill="black"/>
<path d="M29.0135 31.2621C28.9789 30.4756 29.3412 29.9835 30.0154 29.8998C30.6521 29.8204 31.2266 30.2447 31.2685 31.0196C31.3566 32.649 33.1655 33.4442 34.4402 33.0978C35.5403 32.7976 36.3213 31.9231 36.2737 30.9533C36.2232 29.9301 35.3209 29.0815 34.1847 28.904C33.3214 28.7683 32.4133 28.6803 31.6265 28.3368C29.809 27.5416 28.9009 25.9412 29.0193 24.0665C29.1276 22.3592 30.3503 20.8497 32.1376 20.2407C32.4278 20.1425 32.6183 20.0646 32.6371 19.6735C32.6746 18.8985 33.1828 18.4266 33.8209 18.454C34.4532 18.4814 34.8935 18.9331 34.9065 19.6966C34.9138 20.1108 35.1678 20.144 35.4335 20.2435C37.2265 20.9088 38.3179 22.1485 38.5547 24.078C38.6528 24.8775 38.2327 25.4649 37.5297 25.5443C36.893 25.6164 36.3906 25.1546 36.2823 24.3955C36.1279 23.3247 35.5215 22.6233 34.524 22.3592C33.4614 22.0778 32.3181 22.4256 31.7117 23.2136C30.7257 24.4937 31.6121 26.2586 33.3416 26.5285C34.2425 26.6699 35.1852 26.7753 36.008 27.1318C37.6856 27.8606 38.6918 29.5924 38.5734 31.2145C38.4392 33.0545 37.251 34.5785 35.4623 35.1788C35.1289 35.29 34.9094 35.3924 34.8935 35.8211C34.8704 36.4084 34.3998 36.814 33.8411 36.8515C33.3041 36.8861 32.7743 36.5195 32.6992 35.9336C32.6371 35.4545 32.4119 35.2842 31.986 35.1384C30.2825 34.5525 29.0886 32.9621 29.0135 31.2621Z" fill="black"/>
<path d="M52.7487 32.6305C52.7343 33.238 52.1857 33.7691 51.5851 33.7576C50.9658 33.746 50.4576 33.2164 50.4677 32.5958C50.4793 31.9767 51.0091 31.4586 51.6212 31.4702C52.2276 31.4817 52.7632 32.033 52.7487 32.6305Z" fill="black"/>
<path d="M17.6361 54.3961C18.241 54.4062 18.7737 54.9518 18.7621 55.5536C18.752 56.1554 18.2005 56.6922 17.6029 56.6807C16.998 56.6691 16.4653 56.1222 16.4768 55.5204C16.4884 54.9142 17.0326 54.386 17.6361 54.3961Z" fill="black"/>
<path d="M8.24792 51.315C8.85281 51.3207 9.37975 51.8576 9.37686 52.4666C9.37398 53.0843 8.85281 53.5966 8.23204 53.5923C7.60694 53.588 7.10599 53.0785 7.11032 52.4493C7.11465 51.8345 7.64014 51.3106 8.24792 51.315Z" fill="black"/>
</svg>
