<svg width="10" height="294" viewBox="0 0 10 294" fill="none" xmlns="http://www.w3.org/2000/svg">
<path d="M3.71416 39.1249C4.38172 38.9859 5.0672 38.9964 5.73477 39.1275C8.77688 39.6259 10.4122 42.021 9.90591 44.4186C9.87455 44.5681 9.81631 44.6547 9.74462 44.6914C8.83512 47.3094 5.80197 47.897 3.35573 47.0707C2.47312 46.853 1.67563 46.4201 1.10663 45.7276C1.07975 45.6961 1.06631 45.662 1.03943 45.6305C0.403226 44.9433 0 44.075 0 43.065C0 41.2812 1.41577 39.6312 3.51702 39.1695C3.54391 39.1616 3.57079 39.1564 3.59767 39.1511C3.63799 39.1406 3.67383 39.1328 3.71416 39.1249ZM4.3414 39.9617C3.79032 40.0063 3.23029 40.1401 2.69713 40.3919C2.30735 40.5965 1.9534 40.8667 1.67115 41.2209C0.967742 42.1023 0.667563 43.2696 1.03047 44.277C1.34857 44.9301 1.91308 45.5151 2.68817 45.9244C5.20161 47.0287 9.3414 46.0817 9.24283 43.3824C9.23387 43.1935 9.21147 43.0152 9.18011 42.8447C8.83512 41.7586 7.88978 40.8431 6.69803 40.3447C5.9767 40.1086 5.17025 39.9879 4.3414 39.9617Z" fill="#272425"/>
<path d="M4.39962 33.6843C4.82077 33.54 5.3136 33.464 5.78851 33.4981C5.97668 33.4981 6.16037 33.5296 6.33062 33.5873C6.3351 33.5873 6.3351 33.5899 6.33958 33.5899C6.39783 33.6109 6.45607 33.6292 6.51431 33.6555C6.6532 33.7106 6.78313 33.7735 6.9041 33.8575C7.38349 34.1958 7.64335 34.6313 7.83152 35.0956C8.03761 35.4708 8.11826 35.8878 8.04209 36.3128C8.03313 36.3784 8.02417 36.444 8.01073 36.5043C7.93009 36.7955 7.77776 37.0631 7.57614 37.2939C7.37901 37.5326 7.12363 37.7294 6.81897 37.8631C6.27686 38.1281 5.6093 38.233 4.91485 38.094C3.68277 37.8474 2.83152 36.7325 2.87632 35.7567C2.8808 35.6334 2.9032 35.5101 2.93905 35.3842C3.06449 34.6654 3.54836 33.9781 4.39962 33.6843ZM3.71414 34.8753C3.10482 35.6308 3.31539 36.5882 4.35482 37.0867C5.07166 37.4329 6.09317 37.6244 6.84586 37.2231C7.5179 36.8663 7.70607 36.2997 7.55822 35.7593C7.53134 35.6859 7.50446 35.6124 7.47758 35.539C7.27596 35.0825 6.8369 34.6733 6.25446 34.4713C5.4032 34.1749 4.31449 34.3664 3.71414 34.8753Z" fill="#272425"/>
<path d="M5.06268 18.6168C6.67558 21.5705 5.51071 24.6002 4.94171 27.5959C4.70426 28.8445 4.42648 30.7227 5.68992 31.6932C5.86913 31.8323 5.92289 31.4782 5.86465 31.3916C4.26519 29.0858 6.14243 26.0351 6.50981 23.6454C6.80103 21.762 6.47397 19.729 5.52863 17.9951C5.27325 17.5282 4.90587 18.3309 5.06268 18.6168Z" fill="#272425"/>
<path d="M6.00811 14.8788C6.31725 15.0441 6.53231 15.3169 6.63535 15.6108C6.64431 15.6239 6.65775 15.637 6.66671 15.658C6.88177 16.1774 6.61295 16.5945 6.17388 16.8411C5.85578 17.0588 5.43464 17.169 5.03141 17.0615C4.59234 17.0064 4.20256 16.786 4.06367 16.3453C4.02334 16.2246 4.00542 16.1013 4.00542 15.9754C3.9203 15.5767 4.05023 15.1779 4.47137 14.9523C4.8298 14.6427 5.37639 14.5378 6.00811 14.8788ZM4.24736 16.0305C4.25632 16.0856 4.27872 16.1354 4.29664 16.1853C4.36385 16.3112 4.46689 16.4292 4.60578 16.5263C4.99557 16.765 5.60937 16.7624 6.03051 16.5814C6.07532 16.5525 6.12012 16.5184 6.16044 16.4843C6.66223 16.041 6.40686 15.3563 5.73481 15.1176C4.92388 14.829 4.11743 15.3196 4.24736 16.0305Z" fill="#272425"/>
<path d="M5.67653 0.0340595C4.41309 1.00463 4.69535 2.88281 4.92833 4.13144C5.49732 7.12709 6.6622 10.1568 5.04929 13.1105C4.89248 13.3964 5.25987 14.1965 5.51524 13.7322C6.46058 11.9983 6.78764 9.96536 6.49643 8.08193C6.12904 5.69223 4.2518 2.64149 5.85126 0.33573C5.91399 0.249165 5.86022 -0.107592 5.67653 0.0340595Z" fill="#272425"/>
<path d="M3.71416 88.441C4.38172 88.302 5.0672 88.3125 5.73477 88.4436C8.77688 88.942 10.4122 91.337 9.90591 93.7347C9.87455 93.8842 9.81631 93.9708 9.74462 94.0075C8.83512 96.6255 5.80197 97.2131 3.35573 96.3868C2.47312 96.169 1.67563 95.7362 1.10663 95.0437C1.07975 95.0122 1.06631 94.9781 1.03943 94.9466C0.403226 94.2593 0 93.391 0 92.3811C0 90.5973 1.41577 88.9473 3.51702 88.4856C3.54391 88.4777 3.57079 88.4725 3.59767 88.4672C3.63799 88.4567 3.67383 88.4489 3.71416 88.441ZM4.3414 89.2778C3.79032 89.3224 3.23029 89.4562 2.69713 89.708C2.30735 89.9126 1.9534 90.1828 1.67115 90.537C0.967742 91.4184 0.667563 92.5857 1.03047 93.593C1.34857 94.2462 1.91308 94.8312 2.68817 95.2404C5.20161 96.3448 9.3414 95.3978 9.24283 92.6985C9.23387 92.5096 9.21147 92.3313 9.18011 92.1607C8.83512 91.0747 7.88978 90.1592 6.69803 89.6608C5.9767 89.4247 5.17025 89.3041 4.3414 89.2778Z" fill="#272425"/>
<path d="M4.39962 83.0006C4.82077 82.8563 5.3136 82.7803 5.78851 82.8144C5.97668 82.8144 6.16037 82.8459 6.33062 82.9062C6.3351 82.9062 6.3351 82.9088 6.33958 82.9088C6.39783 82.9298 6.45607 82.9481 6.51431 82.9744C6.6532 83.0295 6.78313 83.0924 6.9041 83.1764C7.38349 83.5148 7.64335 83.9502 7.83152 84.4145C8.03761 84.7896 8.11826 85.2067 8.04209 85.6317C8.03313 85.6973 8.02417 85.7629 8.01073 85.8232C7.93009 86.1144 7.77776 86.3819 7.57614 86.6128C7.37901 86.8515 7.12363 87.0482 6.81897 87.182C6.27686 87.4469 5.6093 87.5519 4.91485 87.4128C3.68277 87.1663 2.83152 86.0514 2.87632 85.0756C2.8808 84.9523 2.9032 84.829 2.93905 84.7031C3.06449 83.9817 3.54836 83.2918 4.39962 83.0006ZM3.71414 84.1915C3.10482 84.947 3.31539 85.9045 4.35482 86.4029C5.07166 86.7492 6.09317 86.9407 6.84586 86.5393C7.5179 86.1826 7.70607 85.6159 7.55822 85.0756C7.53134 85.0021 7.50446 84.9287 7.47758 84.8552C7.27596 84.3988 6.8369 83.9896 6.25446 83.7876C5.4032 83.4912 4.31449 83.6826 3.71414 84.1915Z" fill="#272425"/>
<path d="M5.06268 67.9329C6.67558 70.8866 5.51071 73.9164 4.94171 76.9121C4.70426 78.1607 4.42648 80.0389 5.68992 81.0095C5.86913 81.1486 5.92289 80.7944 5.86465 80.7079C4.26519 78.4021 6.14243 75.3513 6.50981 72.9616C6.80103 71.0781 6.47397 69.0451 5.52863 67.3112C5.27325 66.8443 4.90587 67.647 5.06268 67.9329Z" fill="#272425"/>
<path d="M6.00811 64.1949C6.31725 64.3601 6.53231 64.6329 6.63535 64.9267C6.64431 64.9399 6.65775 64.953 6.66671 64.974C6.88177 65.4934 6.61295 65.9104 6.17388 66.157C5.85578 66.3748 5.43464 66.4849 5.03141 66.3774C4.59234 66.3223 4.20256 66.1019 4.06367 65.6612C4.02334 65.5406 4.00542 65.4173 4.00542 65.2914C3.9203 64.8926 4.05023 64.4939 4.47137 64.2683C4.8298 63.9588 5.37639 63.8539 6.00811 64.1949ZM4.24736 65.3465C4.25632 65.4016 4.27872 65.4514 4.29664 65.5012C4.36385 65.6271 4.46689 65.7452 4.60578 65.8422C4.99557 66.081 5.60937 66.0783 6.03051 65.8973C6.07532 65.8685 6.12012 65.8344 6.16044 65.8003C6.66223 65.357 6.40686 64.6723 5.73481 64.4336C4.92388 64.145 4.11743 64.6356 4.24736 65.3465Z" fill="#272425"/>
<path d="M5.67653 49.3503C4.41309 50.3209 4.69535 52.1991 4.92833 53.4478C5.49732 56.4435 6.6622 59.4733 5.04929 62.427C4.89248 62.713 5.25987 63.513 5.51524 63.0487C6.46058 61.3148 6.78764 59.2818 6.49643 57.3983C6.12904 55.0086 4.2518 51.9578 5.85126 49.652C5.91399 49.5654 5.86022 49.2087 5.67653 49.3503Z" fill="#272425"/>
<path d="M3.71416 137.757C4.38172 137.618 5.0672 137.629 5.73477 137.76C8.77688 138.258 10.4122 140.653 9.90591 143.051C9.87455 143.2 9.81631 143.287 9.74462 143.324C8.83512 145.942 5.80197 146.529 3.35573 145.703C2.47312 145.485 1.67563 145.052 1.10663 144.36C1.07975 144.328 1.06631 144.294 1.03943 144.263C0.403226 143.575 0 142.707 0 141.697C0 139.913 1.41577 138.263 3.51702 137.802C3.54391 137.794 3.57079 137.789 3.59767 137.783C3.63799 137.773 3.67383 137.765 3.71416 137.757ZM4.3414 138.594C3.79032 138.639 3.23029 138.772 2.69713 139.024C2.30735 139.229 1.9534 139.499 1.67115 139.853C0.967742 140.735 0.667563 141.902 1.03047 142.909C1.34857 143.562 1.91308 144.147 2.68817 144.557C5.20161 145.661 9.3414 144.714 9.24283 142.015C9.23387 141.826 9.21147 141.647 9.18011 141.477C8.83512 140.391 7.88978 139.475 6.69803 138.977C5.9767 138.741 5.17025 138.62 4.3414 138.594Z" fill="#272425"/>
<path d="M4.39962 132.317C4.82077 132.172 5.3136 132.096 5.78851 132.13C5.97668 132.13 6.16037 132.162 6.33062 132.222C6.3351 132.222 6.3351 132.225 6.33958 132.225C6.39783 132.246 6.45607 132.264 6.51431 132.29C6.6532 132.345 6.78313 132.408 6.9041 132.492C7.38349 132.831 7.64335 133.266 7.83152 133.73C8.03761 134.106 8.11826 134.523 8.04209 134.948C8.03313 135.013 8.02417 135.079 8.01073 135.139C7.93009 135.43 7.77776 135.698 7.57614 135.929C7.37901 136.167 7.12363 136.364 6.81897 136.498C6.27686 136.763 5.6093 136.868 4.91485 136.729C3.68277 136.482 2.83152 135.367 2.87632 134.391C2.8808 134.268 2.9032 134.145 2.93905 134.019C3.06449 133.298 3.54836 132.608 4.39962 132.317ZM3.71414 133.507C3.10482 134.263 3.31539 135.22 4.35482 135.719C5.07166 136.065 6.09317 136.257 6.84586 135.855C7.5179 135.498 7.70607 134.932 7.55822 134.391C7.53134 134.318 7.50446 134.245 7.47758 134.171C7.27596 133.715 6.8369 133.306 6.25446 133.104C5.4032 132.807 4.31449 132.999 3.71414 133.507Z" fill="#272425"/>
<path d="M5.06268 117.249C6.67558 120.203 5.51071 123.233 4.94171 126.228C4.70426 127.477 4.42648 129.355 5.68992 130.326C5.86913 130.465 5.92289 130.111 5.86465 130.024C4.26519 127.718 6.14243 124.667 6.50981 122.278C6.80103 120.394 6.47397 118.361 5.52863 116.627C5.27325 116.16 4.90587 116.963 5.06268 117.249Z" fill="#272425"/>
<path d="M6.00811 113.511C6.31725 113.676 6.53231 113.949 6.63535 114.243C6.64431 114.256 6.65775 114.269 6.66671 114.29C6.88177 114.809 6.61295 115.226 6.17388 115.473C5.85578 115.691 5.43464 115.801 5.03141 115.693C4.59234 115.638 4.20256 115.418 4.06367 114.977C4.02334 114.857 4.00542 114.733 4.00542 114.607C3.9203 114.209 4.05023 113.81 4.47137 113.584C4.8298 113.275 5.37639 113.17 6.00811 113.511ZM4.24736 114.663C4.25632 114.718 4.27872 114.767 4.29664 114.817C4.36385 114.943 4.46689 115.061 4.60578 115.158C4.99557 115.397 5.60937 115.394 6.03051 115.213C6.07532 115.185 6.12012 115.15 6.16044 115.116C6.66223 114.673 6.40686 113.988 5.73481 113.75C4.92388 113.461 4.11743 113.952 4.24736 114.663Z" fill="#272425"/>
<path d="M5.67653 98.6638C4.41309 99.6344 4.69535 101.513 4.92833 102.761C5.49732 105.757 6.6622 108.787 5.04929 111.74C4.89248 112.026 5.25987 112.826 5.51524 112.362C6.46058 110.628 6.78764 108.595 6.49643 106.712C6.12904 104.322 4.2518 101.271 5.85126 98.9655C5.91399 98.8815 5.86022 98.5248 5.67653 98.6638Z" fill="#272425"/>
<path d="M3.71416 187.073C4.38172 186.934 5.0672 186.945 5.73477 187.076C8.77688 187.574 10.4122 189.969 9.90591 192.367C9.87455 192.517 9.81631 192.603 9.74462 192.64C8.83512 195.258 5.80197 195.845 3.35573 195.019C2.47312 194.801 1.67563 194.369 1.10663 193.676C1.07975 193.645 1.06631 193.61 1.03943 193.579C0.403226 192.892 0 192.023 0 191.013C0 189.23 1.41577 187.58 3.51702 187.118C3.54391 187.11 3.57079 187.105 3.59767 187.1C3.63799 187.089 3.67383 187.081 3.71416 187.073ZM4.3414 187.91C3.79032 187.955 3.23029 188.089 2.69713 188.34C2.30735 188.545 1.9534 188.815 1.67115 189.169C0.967742 190.051 0.667563 191.218 1.03047 192.225C1.34857 192.879 1.91308 193.464 2.68817 193.873C5.20161 194.977 9.3414 194.03 9.24283 191.331C9.23387 191.142 9.21147 190.964 9.18011 190.793C8.83512 189.707 7.88978 188.792 6.69803 188.293C5.9767 188.057 5.17025 187.936 4.3414 187.91Z" fill="#272425"/>
<path d="M4.39962 181.633C4.82077 181.489 5.3136 181.413 5.78851 181.447C5.97668 181.447 6.16037 181.478 6.33062 181.539C6.3351 181.539 6.3351 181.541 6.33958 181.541C6.39783 181.562 6.45607 181.58 6.51431 181.607C6.6532 181.662 6.78313 181.725 6.9041 181.809C7.38349 182.147 7.64335 182.583 7.83152 183.047C8.03761 183.422 8.11826 183.839 8.04209 184.264C8.03313 184.33 8.02417 184.395 8.01073 184.456C7.93009 184.747 7.77776 185.014 7.57614 185.245C7.37901 185.484 7.12363 185.681 6.81897 185.814C6.27686 186.079 5.6093 186.184 4.91485 186.045C3.68277 185.799 2.83152 184.684 2.87632 183.708C2.8808 183.585 2.9032 183.461 2.93905 183.335C3.06449 182.614 3.54836 181.924 4.39962 181.633ZM3.71414 182.824C3.10482 183.579 3.31539 184.537 4.35482 185.035C5.07166 185.381 6.09317 185.573 6.84586 185.172C7.5179 184.815 7.70607 184.248 7.55822 183.708C7.53134 183.634 7.50446 183.561 7.47758 183.488C7.27596 183.031 6.8369 182.622 6.25446 182.42C5.4032 182.123 4.31449 182.315 3.71414 182.824Z" fill="#272425"/>
<path d="M5.06268 166.565C6.67558 169.519 5.51071 172.549 4.94171 175.544C4.70426 176.793 4.42648 178.671 5.68992 179.642C5.86913 179.781 5.92289 179.427 5.86465 179.34C4.26519 177.034 6.14243 173.984 6.50981 171.594C6.80103 169.71 6.47397 167.677 5.52863 165.944C5.27325 165.477 4.90587 166.279 5.06268 166.565Z" fill="#272425"/>
<path d="M6.00811 162.827C6.31725 162.992 6.53231 163.265 6.63535 163.559C6.64431 163.572 6.65775 163.585 6.66671 163.606C6.88177 164.126 6.61295 164.543 6.17388 164.789C5.85578 165.007 5.43464 165.117 5.03141 165.01C4.59234 164.955 4.20256 164.734 4.06367 164.293C4.02334 164.173 4.00542 164.05 4.00542 163.924C3.9203 163.525 4.05023 163.126 4.47137 162.901C4.8298 162.591 5.37639 162.486 6.00811 162.827ZM4.24736 163.979C4.25632 164.034 4.27872 164.084 4.29664 164.133C4.36385 164.259 4.46689 164.377 4.60578 164.474C4.99557 164.713 5.60937 164.711 6.03051 164.53C6.07532 164.501 6.12012 164.467 6.16044 164.433C6.66223 163.989 6.40686 163.305 5.73481 163.066C4.92388 162.775 4.11743 163.268 4.24736 163.979Z" fill="#272425"/>
<path d="M5.67653 147.98C4.41309 148.951 4.69535 150.829 4.92833 152.077C5.49732 155.073 6.6622 158.103 5.04929 161.057C4.89248 161.342 5.25987 162.143 5.51524 161.678C6.46058 159.944 6.78764 157.911 6.49643 156.028C6.12904 153.638 4.2518 150.587 5.85126 148.282C5.91399 148.198 5.86022 147.841 5.67653 147.98Z" fill="#272425"/>
<path d="M3.71416 236.389C4.38172 236.25 5.0672 236.261 5.73477 236.392C8.77688 236.89 10.4122 239.285 9.90591 241.683C9.87455 241.832 9.81631 241.919 9.74462 241.956C8.83512 244.574 5.80197 245.161 3.35573 244.335C2.47312 244.117 1.67563 243.684 1.10663 242.992C1.07975 242.96 1.06631 242.926 1.03943 242.895C0.403226 242.208 0 241.339 0 240.329C0 238.546 1.41577 236.896 3.51702 236.434C3.54391 236.426 3.57079 236.421 3.59767 236.416C3.63799 236.405 3.67383 236.397 3.71416 236.389ZM4.3414 237.226C3.79032 237.271 3.23029 237.404 2.69713 237.656C2.30735 237.861 1.9534 238.131 1.67115 238.485C0.967742 239.367 0.667563 240.534 1.03047 241.541C1.34857 242.194 1.91308 242.779 2.68817 243.189C5.20161 244.293 9.3414 243.346 9.24283 240.647C9.23387 240.458 9.21147 240.28 9.18011 240.109C8.83512 239.023 7.88978 238.107 6.69803 237.609C5.9767 237.373 5.17025 237.252 4.3414 237.226Z" fill="#272425"/>
<path d="M4.39962 230.949C4.82077 230.805 5.3136 230.729 5.78851 230.763C5.97668 230.763 6.16037 230.794 6.33062 230.854C6.3351 230.854 6.3351 230.857 6.33958 230.857C6.39783 230.878 6.45607 230.896 6.51431 230.923C6.6532 230.978 6.78313 231.041 6.9041 231.125C7.38349 231.463 7.64335 231.898 7.83152 232.363C8.03761 232.738 8.11826 233.155 8.04209 233.58C8.03313 233.646 8.02417 233.711 8.01073 233.771C7.93009 234.063 7.77776 234.33 7.57614 234.561C7.37901 234.8 7.12363 234.996 6.81897 235.13C6.27686 235.395 5.6093 235.5 4.91485 235.361C3.68277 235.115 2.83152 234 2.87632 233.024C2.8808 232.901 2.9032 232.777 2.93905 232.651C3.06449 231.93 3.54836 231.24 4.39962 230.949ZM3.71414 232.14C3.10482 232.895 3.31539 233.853 4.35482 234.351C5.07166 234.697 6.09317 234.889 6.84586 234.488C7.5179 234.131 7.70607 233.564 7.55822 233.024C7.53134 232.95 7.50446 232.877 7.47758 232.803C7.27596 232.347 6.8369 231.938 6.25446 231.736C5.4032 231.439 4.31449 231.631 3.71414 232.14Z" fill="#272425"/>
<path d="M5.06268 215.881C6.67558 218.835 5.51071 221.865 4.94171 224.86C4.70426 226.109 4.42648 227.987 5.68992 228.958C5.86913 229.097 5.92289 228.743 5.86465 228.656C4.26519 226.35 6.14243 223.3 6.50981 220.91C6.80103 219.026 6.47397 216.993 5.52863 215.259C5.27325 214.792 4.90587 215.595 5.06268 215.881Z" fill="#272425"/>
<path d="M6.00811 212.143C6.31725 212.308 6.53231 212.581 6.63535 212.875C6.64431 212.888 6.65775 212.901 6.66671 212.922C6.88177 213.441 6.61295 213.859 6.17388 214.105C5.85578 214.323 5.43464 214.433 5.03141 214.326C4.59234 214.27 4.20256 214.05 4.06367 213.609C4.02334 213.489 4.00542 213.365 4.00542 213.24C3.9203 212.841 4.05023 212.442 4.47137 212.216C4.8298 211.907 5.37639 211.802 6.00811 212.143ZM4.24736 213.295C4.25632 213.35 4.27872 213.4 4.29664 213.449C4.36385 213.575 4.46689 213.693 4.60578 213.79C4.99557 214.029 5.60937 214.026 6.03051 213.845C6.07532 213.817 6.12012 213.783 6.16044 213.748C6.66223 213.305 6.40686 212.62 5.73481 212.382C4.92388 212.091 4.11743 212.584 4.24736 213.295Z" fill="#272425"/>
<path d="M5.67653 197.296C4.41309 198.266 4.69535 200.145 4.92833 201.393C5.49732 204.389 6.6622 207.419 5.04929 210.372C4.89248 210.658 5.25987 211.458 5.51524 210.994C6.46058 209.26 6.78764 207.227 6.49643 205.344C6.12904 202.954 4.2518 199.903 5.85126 197.597C5.91399 197.514 5.86022 197.157 5.67653 197.296Z" fill="#272425"/>
<path d="M3.71416 285.703C4.38172 285.564 5.0672 285.575 5.73477 285.706C8.77688 286.204 10.4122 288.599 9.90591 290.997C9.87455 291.146 9.81631 291.233 9.74462 291.27C8.83512 293.888 5.80197 294.475 3.35573 293.649C2.47312 293.431 1.67563 292.998 1.10663 292.306C1.08423 292.277 1.06631 292.24 1.03943 292.209C0.403226 291.522 0 290.653 0 289.643C0 287.86 1.41577 286.21 3.51702 285.748C3.54391 285.74 3.57079 285.735 3.59767 285.73C3.63799 285.719 3.67383 285.711 3.71416 285.703ZM4.3414 286.54C3.79032 286.585 3.23029 286.718 2.69713 286.97C2.30735 287.175 1.9534 287.445 1.67115 287.799C0.967742 288.681 0.667563 289.848 1.03047 290.855C1.34409 291.511 1.9086 292.096 2.68369 292.505C5.19713 293.61 9.33692 292.663 9.23835 289.963C9.22939 289.774 9.20699 289.596 9.17563 289.426C8.83064 288.34 7.8853 287.424 6.69355 286.926C5.9767 286.687 5.17025 286.566 4.3414 286.54Z" fill="#272425"/>
<path d="M4.39962 280.265C4.82077 280.121 5.3136 280.045 5.78851 280.079C5.97668 280.079 6.16037 280.11 6.33062 280.171C6.3351 280.171 6.3351 280.173 6.33958 280.173C6.39783 280.194 6.45607 280.213 6.51431 280.239C6.6532 280.294 6.78313 280.357 6.9041 280.441C7.38349 280.779 7.64335 281.215 7.83152 281.679C8.03761 282.054 8.11826 282.471 8.04209 282.896C8.03313 282.962 8.02417 283.027 8.01073 283.088C7.93009 283.379 7.77776 283.646 7.57614 283.877C7.37901 284.116 7.12363 284.313 6.81897 284.446C6.27686 284.711 5.6093 284.816 4.91485 284.677C3.68277 284.431 2.83152 283.316 2.87632 282.34C2.8808 282.217 2.9032 282.093 2.93905 281.967C3.06449 281.246 3.54836 280.556 4.39962 280.265ZM3.71414 281.456C3.10482 282.211 3.31539 283.169 4.35482 283.667C5.07166 284.014 6.09317 284.205 6.84586 283.804C7.5179 283.447 7.70607 282.88 7.55822 282.34C7.53134 282.267 7.50446 282.193 7.47758 282.12C7.27596 281.663 6.8369 281.254 6.25446 281.052C5.4032 280.756 4.31449 280.947 3.71414 281.456Z" fill="#272425"/>
<path d="M5.06268 265.197C6.67558 268.151 5.51071 271.181 4.94171 274.177C4.70426 275.425 4.42648 277.303 5.68992 278.274C5.86913 278.413 5.92289 278.059 5.86465 277.972C4.26519 275.666 6.14243 272.616 6.50981 270.226C6.80103 268.343 6.47397 266.31 5.52863 264.576C5.27325 264.109 4.90587 264.911 5.06268 265.197Z" fill="#272425"/>
<path d="M6.00811 261.459C6.31725 261.624 6.53231 261.897 6.63535 262.191C6.64431 262.204 6.65775 262.217 6.66671 262.238C6.88177 262.758 6.61295 263.175 6.17388 263.421C5.85578 263.639 5.43464 263.749 5.03141 263.642C4.59234 263.587 4.20256 263.366 4.06367 262.926C4.02334 262.805 4.00542 262.682 4.00542 262.556C3.9203 262.157 4.05023 261.758 4.47137 261.533C4.8298 261.223 5.37639 261.116 6.00811 261.459ZM4.24736 262.611C4.25632 262.666 4.27872 262.716 4.29664 262.766C4.36385 262.891 4.46689 263.009 4.60578 263.107C4.99557 263.345 5.60937 263.343 6.03051 263.162C6.07532 263.133 6.12012 263.099 6.16044 263.065C6.66223 262.621 6.40686 261.937 5.73481 261.698C4.92388 261.407 4.11743 261.9 4.24736 262.611Z" fill="#272425"/>
<path d="M5.67653 246.612C4.41309 247.583 4.69535 249.461 4.92833 250.709C5.49732 253.705 6.6622 256.735 5.04929 259.689C4.89248 259.975 5.25987 260.775 5.51524 260.31C6.46058 258.576 6.78764 256.543 6.49643 254.66C6.12904 252.27 4.2518 249.219 5.85126 246.914C5.91399 246.83 5.86022 246.473 5.67653 246.612Z" fill="#272425"/>
</svg>
