<svg width="1749" height="289" viewBox="0 0 1749 289" fill="none" xmlns="http://www.w3.org/2000/svg">
<path d="M21.9285 201.852C57.0881 208.292 92.1855 214.731 127.345 221.171C137.967 223.128 146.353 217.044 144.366 211.458C140.39 200.536 136.414 189.578 132.501 178.655C253.199 160.582 381.227 167.662 501.055 188.012C628.586 209.679 754.998 258.706 893.027 247.321C922.348 244.902 958.066 238 991.983 227.611C1042.18 258.955 1115.54 280.658 1182.75 286.955C1271.95 295.316 1362.9 277.527 1422.84 240.454C1506.89 248.922 1604.11 233.232 1671.57 209.608C1794.69 166.452 1865.32 86.6503 1855.01 4.35813C1854.26 -1.36994 1838.86 -1.51226 1839.23 4.35813C1843.58 66.7621 1803.01 128.988 1722.88 171.967C1650.01 211.067 1541.86 236.043 1440.98 227.931C1449.06 221.669 1456.32 214.945 1462.72 207.829C1502.73 162.965 1500.24 71.494 1377.31 76.3682C1265.18 80.8155 1239.84 154.889 1300.34 199.86C1325.19 218.325 1357.68 230.03 1393.77 236.47C1342.03 264.719 1269.16 278.772 1196.17 273.293C1131.38 268.419 1062.67 248.815 1015.22 219.855C1080.69 195.911 1131.32 158.909 1101.38 116.998C1083.67 92.2005 1037.89 80.7087 994.592 91.4533C946.077 103.514 924.522 133.186 932.908 162.005C938.685 181.893 954.153 200.322 975.894 216.617C909.365 236.007 828.423 237.501 754.812 225.44C695.736 215.763 640.202 200.429 582.866 187.906C525.902 175.418 467.013 165.598 406.882 159.479C313.703 150.015 217.915 149.659 126.848 163.179C124.798 157.486 122.686 151.758 120.636 146.066C120.325 140.942 120.263 135.855 120.388 130.696C120.512 126.854 115.294 124.363 109.641 123.758C103.615 121.197 93.6142 122.477 88.831 126.106C60.194 147.845 31.6192 169.654 2.73368 191.357C-6.64633 198.401 10.3122 205.41 21.9285 201.852ZM1299.1 170.401C1282.33 144.856 1290.9 115.077 1332.89 99.7074C1377.87 83.2704 1434.27 90.3148 1454.15 120.094C1471.36 145.852 1461.85 176.449 1440.61 200.429C1432.84 209.217 1423.46 217.293 1412.84 224.693C1362.65 217.08 1318.05 199.184 1299.1 170.401ZM963.222 170.508C948.127 143.077 966.701 102.34 1028.2 101.984C1056.34 101.807 1075.72 115.469 1081.31 130.162C1087.9 147.453 1074.23 164.602 1056.34 178.086C1039.75 190.609 1020.25 200.785 998.879 208.861C983.162 197.227 970.801 184.348 963.222 170.508Z" fill="#3F3E3E" fill-opacity="0.2"/>
</svg>
