<svg width="87" height="118" viewBox="0 0 87 118" fill="none" xmlns="http://www.w3.org/2000/svg">
<path d="M20.08 72.7098C20.11 77.3098 20.15 81.8998 20.19 86.4998C12.93 74.0898 8.9 60.0898 8.47 45.6598C7.99 29.6898 12.45 16.0898 18.23 1.49982C18.79 0.0698187 16.72 -0.500181 15.94 0.539819C6.51 13.1298 3.1 31.1498 3.47 46.5798C3.82 61.3998 7.77 75.8398 15.07 88.6698C10.44 85.6498 6.34 81.8098 3.14 77.3098C2.3 76.1298 0.430004 77.1598 1.16 78.4698C5.81 86.7798 12.5 93.1798 21.34 96.9098C22.83 97.5398 24.66 96.8398 24.66 94.9998C24.67 87.5698 24.67 80.1298 24.66 72.6998C24.67 69.7498 20.06 69.7498 20.08 72.7098Z" fill="#3F3E3E" fill-opacity="0.5"/>
<path d="M86.6 114.29C84.45 106.24 81.51 98.5098 77.9 90.9997C76.61 88.3197 72.62 90.6598 73.91 93.3298C76.26 98.1998 78.25 103.19 79.99 108.28C67.22 99.3997 56.81 87.5897 49.52 73.8397C42.03 59.7097 39.8 45.2097 37.37 29.6497C37.27 29.0197 36.2 29.0197 36.1 29.6497C33.59 45.1997 38.79 62.2797 45.67 76.0897C51.81 88.4097 60.5 99.2097 71.05 107.92C66.24 106.03 61.48 104.01 56.58 102.14C55.3 101.65 54.81 103.48 55.72 104.18C63.84 110.36 74.16 114.16 83.86 117.03C85.5 117.52 87.03 115.9 86.6 114.29Z" fill="#3F3E3E" fill-opacity="0.5"/>
</svg>
