<svg width="195" height="195" viewBox="0 0 195 195" fill="none" xmlns="http://www.w3.org/2000/svg">
<path d="M108.203 97.6263C108.283 97.6263 108.347 97.5616 108.347 97.4818C108.347 97.4021 108.283 97.3374 108.203 97.3374C108.123 97.3374 108.058 97.4021 108.058 97.4818C108.058 97.5616 108.123 97.6263 108.203 97.6263Z" fill="black" fill-opacity="0.5"/>
<path d="M100.724 107.934C100.804 107.934 100.869 107.869 100.869 107.79C100.869 107.71 100.804 107.645 100.724 107.645C100.645 107.645 100.58 107.71 100.58 107.79C100.58 107.869 100.645 107.934 100.724 107.934Z" fill="black" fill-opacity="0.5"/>
<path d="M88.6035 104.071C88.7232 104.071 88.8202 103.974 88.8202 103.855C88.8202 103.735 88.7232 103.638 88.6035 103.638C88.4838 103.638 88.3867 103.735 88.3867 103.855C88.3867 103.974 88.4838 104.071 88.6035 104.071Z" fill="black" fill-opacity="0.5"/>
<path d="M88.6035 91.3802C88.748 91.3802 88.8745 91.2538 88.8745 91.1094C88.8745 90.965 88.748 90.8386 88.6035 90.8386C88.459 90.8386 88.3326 90.965 88.3326 91.1094C88.3326 91.2719 88.441 91.3802 88.6035 91.3802Z" fill="black" fill-opacity="0.5"/>
<path d="M100.724 87.4089C100.854 87.4089 100.959 87.3039 100.959 87.1743C100.959 87.0446 100.854 86.9396 100.724 86.9396C100.595 86.9396 100.49 87.0446 100.49 87.1743C100.49 87.3039 100.595 87.4089 100.724 87.4089Z" fill="black" fill-opacity="0.5"/>
<path d="M119.041 99.7023C120.268 99.7023 121.263 98.7082 121.263 97.4819C121.263 96.2556 120.268 95.2615 119.041 95.2615C117.814 95.2615 116.819 96.2556 116.819 97.4819C116.819 98.7082 117.814 99.7023 119.041 99.7023Z" fill="black" fill-opacity="0.5"/>
<path d="M114.905 112.393C116.112 112.393 117.09 111.415 117.09 110.209C117.09 109.002 116.112 108.024 114.905 108.024C113.697 108.024 112.719 109.002 112.719 110.209C112.719 111.415 113.697 112.393 114.905 112.393Z" fill="black" fill-opacity="0.5"/>
<path d="M104.066 120.3C105.293 120.3 106.288 119.306 106.288 118.08C106.288 116.853 105.293 115.859 104.066 115.859C102.839 115.859 101.844 116.853 101.844 118.08C101.844 119.306 102.839 120.3 104.066 120.3Z" fill="black" fill-opacity="0.5"/>
<path d="M90.6628 120.372C91.9272 120.372 92.9388 119.343 92.9388 118.098C92.9388 116.834 91.9092 115.823 90.6628 115.823C89.3983 115.823 88.3867 116.852 88.3867 118.098C88.3867 119.343 89.4164 120.372 90.6628 120.372Z" fill="black" fill-opacity="0.5"/>
<path d="M79.8244 112.574C81.1313 112.574 82.1908 111.515 82.1908 110.209C82.1908 108.903 81.1313 107.844 79.8244 107.844C78.5175 107.844 77.4581 108.903 77.4581 110.209C77.4581 111.515 78.5175 112.574 79.8244 112.574Z" fill="black" fill-opacity="0.5"/>
<path d="M75.6878 99.9372C77.0446 99.9372 78.1445 98.838 78.1445 97.4821C78.1445 96.1262 77.0446 95.027 75.6878 95.027C74.331 95.027 73.2311 96.1262 73.2311 97.4821C73.2311 98.838 74.331 99.9372 75.6878 99.9372Z" fill="black" fill-opacity="0.5"/>
<path d="M79.8245 87.2462C81.1973 87.2462 82.3173 86.127 82.3173 84.755C82.3173 83.383 81.1973 82.2638 79.8245 82.2638C78.4516 82.2638 77.3317 83.383 77.3317 84.755C77.3317 86.127 78.4516 87.2462 79.8245 87.2462Z" fill="black" fill-opacity="0.5"/>
<path d="M90.6628 79.3756C92.0395 79.3756 93.1556 78.2603 93.1556 76.8844C93.1556 75.5085 92.0395 74.3932 90.6628 74.3932C89.2861 74.3932 88.17 75.5085 88.17 76.8844C88.17 78.2603 89.2861 79.3756 90.6628 79.3756Z" fill="black" fill-opacity="0.5"/>
<path d="M104.066 79.3216C105.413 79.3216 106.505 78.2305 106.505 76.8846C106.505 75.5386 105.413 74.4475 104.066 74.4475C102.719 74.4475 101.628 75.5386 101.628 76.8846C101.628 78.2305 102.719 79.3216 104.066 79.3216Z" fill="black" fill-opacity="0.5"/>
<path d="M114.905 87.0657C116.182 87.0657 117.217 86.0312 117.217 84.755C117.217 83.4789 116.182 82.4443 114.905 82.4443C113.628 82.4443 112.592 83.4789 112.592 84.755C112.592 86.0312 113.628 87.0657 114.905 87.0657Z" fill="black" fill-opacity="0.5"/>
<path d="M129.88 101.183C131.921 101.183 133.583 99.522 133.583 97.4821C133.583 95.4422 131.921 93.7814 129.88 93.7814C127.838 93.7814 126.176 95.4422 126.176 97.4821C126.176 99.522 127.838 101.183 129.88 101.183Z" fill="black" fill-opacity="0.5"/>
<path d="M127.08 114.397C129.121 114.397 130.783 112.736 130.783 110.696C130.783 108.656 129.121 106.995 127.08 106.995C125.038 106.995 123.377 108.656 123.377 110.696C123.377 112.736 125.038 114.397 127.08 114.397Z" fill="black" fill-opacity="0.5"/>
<path d="M119.132 125.318C121.173 125.318 122.835 123.657 122.835 121.618C122.835 119.578 121.173 117.917 119.132 117.917C117.09 117.917 115.428 119.578 115.428 121.618C115.428 123.676 117.09 125.318 119.132 125.318Z" fill="black" fill-opacity="0.5"/>
<path d="M107.408 132.088C109.449 132.088 111.111 130.427 111.111 128.387C111.111 126.347 109.449 124.687 107.408 124.687C105.367 124.687 103.705 126.347 103.705 128.387C103.705 130.427 105.367 132.088 107.408 132.088Z" fill="black" fill-opacity="0.5"/>
<path d="M93.9685 133.496C96.0097 133.496 97.6716 131.835 97.6716 129.795C97.6716 127.756 96.0097 126.095 93.9685 126.095C91.9273 126.095 90.2654 127.756 90.2654 129.795C90.2654 131.835 91.9273 133.496 93.9685 133.496Z" fill="black" fill-opacity="0.5"/>
<path d="M81.107 129.29C83.1301 129.29 84.774 127.647 84.774 125.625C84.774 123.604 83.1301 121.961 81.107 121.961C79.0838 121.961 77.44 123.604 77.44 125.625C77.44 127.647 79.0838 129.29 81.107 129.29Z" fill="black" fill-opacity="0.5"/>
<path d="M71.0635 120.246C73.0887 120.246 74.7304 118.605 74.7304 116.581C74.7304 114.557 73.0887 112.916 71.0635 112.916C69.0382 112.916 67.3965 114.557 67.3965 116.581C67.3965 118.605 69.0382 120.246 71.0635 120.246Z" fill="black" fill-opacity="0.5"/>
<path d="M65.5539 107.898C67.5792 107.898 69.2209 106.257 69.2209 104.233C69.2209 102.21 67.5792 100.569 65.5539 100.569C63.5287 100.569 61.887 102.21 61.887 104.233C61.887 106.257 63.5287 107.898 65.5539 107.898Z" fill="black" fill-opacity="0.5"/>
<path d="M65.5539 94.395C67.5792 94.395 69.2209 92.7543 69.2209 90.7304C69.2209 88.7065 67.5792 87.0658 65.5539 87.0658C63.5287 87.0658 61.887 88.7065 61.887 90.7304C61.887 92.7543 63.5287 94.395 65.5539 94.395Z" fill="black" fill-opacity="0.5"/>
<path d="M71.0635 82.0475C73.0866 82.0475 74.7304 80.4047 74.7304 78.3829C74.7304 76.361 73.0866 74.7183 71.0635 74.7183C69.0403 74.7183 67.3965 76.361 67.3965 78.3829C67.3965 80.4047 69.0403 82.0475 71.0635 82.0475Z" fill="black" fill-opacity="0.5"/>
<path d="M81.107 73.003C83.1322 73.003 84.774 71.3623 84.774 69.3384C84.774 67.3145 83.1322 65.6738 81.107 65.6738C79.0818 65.6738 77.44 67.3145 77.44 69.3384C77.44 71.3623 79.0818 73.003 81.107 73.003Z" fill="black" fill-opacity="0.5"/>
<path d="M93.9685 68.833C95.9937 68.833 97.6355 67.1923 97.6355 65.1684C97.6355 63.1445 95.9937 61.5038 93.9685 61.5038C91.9433 61.5038 90.3015 63.1445 90.3015 65.1684C90.3015 67.1923 91.9433 68.833 93.9685 68.833Z" fill="black" fill-opacity="0.5"/>
<path d="M107.408 70.2412C109.433 70.2412 111.075 68.6005 111.075 66.5766C111.075 64.5527 109.433 62.912 107.408 62.912C105.383 62.912 103.741 64.5527 103.741 66.5766C103.741 68.6005 105.383 70.2412 107.408 70.2412Z" fill="black" fill-opacity="0.5"/>
<path d="M119.132 77.0286C121.173 77.0286 122.835 75.3678 122.835 73.3279C122.835 71.288 121.173 69.6272 119.132 69.6272C117.09 69.6272 115.428 71.288 115.428 73.3279C115.428 75.3678 117.09 77.0286 119.132 77.0286Z" fill="black" fill-opacity="0.5"/>
<path d="M127.08 87.9683C129.121 87.9683 130.783 86.3075 130.783 84.2676C130.783 82.2277 129.121 80.5669 127.08 80.5669C125.038 80.5669 123.377 82.2277 123.377 84.2676C123.377 86.3075 125.038 87.9683 127.08 87.9683Z" fill="black" fill-opacity="0.5"/>
<path d="M140.718 100.605C142.444 100.605 143.843 99.2067 143.843 97.4819C143.843 95.7571 142.444 94.3589 140.718 94.3589C138.992 94.3589 137.593 95.7571 137.593 97.4819C137.593 99.2067 138.992 100.605 140.718 100.605Z" fill="black" fill-opacity="0.5"/>
<path d="M138.604 114C140.339 114 141.729 112.61 141.729 110.877C141.729 109.144 140.339 107.754 138.604 107.754C136.87 107.754 135.479 109.144 135.479 110.877C135.479 112.592 136.87 114 138.604 114Z" fill="black" fill-opacity="0.5"/>
<path d="M132.445 126.077C134.179 126.077 135.57 124.686 135.57 122.953C135.57 121.22 134.179 119.83 132.445 119.83C130.711 119.83 129.32 121.22 129.32 122.953C129.32 124.668 130.711 126.077 132.445 126.077Z" fill="black" fill-opacity="0.5"/>
<path d="M122.853 135.662C124.587 135.662 125.978 134.272 125.978 132.539C125.978 130.806 124.587 129.416 122.853 129.416C121.119 129.416 119.728 130.806 119.728 132.539C119.728 134.254 121.119 135.662 122.853 135.662Z" fill="black" fill-opacity="0.5"/>
<path d="M110.768 141.818C112.502 141.818 113.893 140.428 113.893 138.695C113.893 136.962 112.502 135.572 110.768 135.572C109.034 135.572 107.643 136.962 107.643 138.695C107.643 140.41 109.034 141.818 110.768 141.818Z" fill="black" fill-opacity="0.5"/>
<path d="M97.3645 143.93C99.0904 143.93 100.49 142.532 100.49 140.807C100.49 139.082 99.0904 137.684 97.3645 137.684C95.6386 137.684 94.2394 139.082 94.2394 140.807C94.2394 142.532 95.6386 143.93 97.3645 143.93Z" fill="black" fill-opacity="0.5"/>
<path d="M83.9792 141.782C85.6852 141.782 87.0681 140.4 87.0681 138.695C87.0681 136.99 85.6852 135.608 83.9792 135.608C82.2732 135.608 80.8903 136.99 80.8903 138.695C80.8903 140.4 82.2732 141.782 83.9792 141.782Z" fill="black" fill-opacity="0.5"/>
<path d="M71.8763 135.626C73.5924 135.626 74.9653 134.236 74.9653 132.539C74.9653 130.824 73.5743 129.452 71.8763 129.452C70.1603 129.452 68.7874 130.842 68.7874 132.539C68.7874 134.236 70.1783 135.626 71.8763 135.626Z" fill="black" fill-opacity="0.5"/>
<path d="M62.3024 126.004C64.0004 126.004 65.3733 124.632 65.3733 122.935C65.3733 121.239 64.0004 119.867 62.3024 119.867C60.6044 119.867 59.2316 121.239 59.2316 122.935C59.2316 124.632 60.6044 126.004 62.3024 126.004Z" fill="black" fill-opacity="0.5"/>
<path d="M56.1426 113.928C57.8407 113.928 59.2135 112.556 59.2135 110.859C59.2135 109.162 57.8407 107.79 56.1426 107.79C54.4446 107.79 53.0718 109.162 53.0718 110.859C53.0718 112.556 54.4446 113.928 56.1426 113.928Z" fill="black" fill-opacity="0.5"/>
<path d="M54.0111 100.551C55.7091 100.551 57.082 99.1788 57.082 97.4818C57.082 95.7849 55.7091 94.413 54.0111 94.413C52.3131 94.413 50.9402 95.7849 50.9402 97.4818C50.9402 99.1788 52.3131 100.551 54.0111 100.551Z" fill="black" fill-opacity="0.5"/>
<path d="M56.1426 87.1199C57.8226 87.1199 59.1774 85.7659 59.1774 84.0871C59.1774 82.4082 57.8226 81.0543 56.1426 81.0543C54.4627 81.0543 53.1079 82.4082 53.1079 84.0871C53.1079 85.7659 54.4627 87.1199 56.1426 87.1199Z" fill="black" fill-opacity="0.5"/>
<path d="M62.3024 75.043C63.9824 75.043 65.3372 73.6891 65.3372 72.0102C65.3372 70.3313 63.9824 68.9774 62.3024 68.9774C60.6225 68.9774 59.2677 70.3313 59.2677 72.0102C59.2496 73.6891 60.6225 75.043 62.3024 75.043Z" fill="black" fill-opacity="0.5"/>
<path d="M71.8763 65.4573C73.5562 65.4573 74.911 64.1034 74.911 62.4245C74.911 60.7456 73.5562 59.3917 71.8763 59.3917C70.1963 59.3917 68.8416 60.7456 68.8416 62.4245C68.8416 64.1034 70.2144 65.4573 71.8763 65.4573Z" fill="black" fill-opacity="0.5"/>
<path d="M83.9791 59.3017C85.6552 59.3017 87.0139 57.9439 87.0139 56.269C87.0139 54.594 85.6552 53.2362 83.9791 53.2362C82.3031 53.2362 80.9444 54.594 80.9444 56.269C80.9444 57.9439 82.3031 59.3017 83.9791 59.3017Z" fill="black" fill-opacity="0.5"/>
<path d="M97.3646 57.2254C99.0626 57.2254 100.435 55.8534 100.435 54.1565C100.435 52.4596 99.0626 51.0876 97.3646 51.0876C95.6666 51.0876 94.2937 52.4596 94.2937 54.1565C94.2937 55.8534 95.6666 57.2254 97.3646 57.2254Z" fill="black" fill-opacity="0.5"/>
<path d="M110.768 59.3378C112.466 59.3378 113.839 57.9659 113.839 56.269C113.839 54.572 112.466 53.2001 110.768 53.2001C109.07 53.2001 107.697 54.572 107.697 56.269C107.697 57.9659 109.07 59.3378 110.768 59.3378Z" fill="black" fill-opacity="0.5"/>
<path d="M122.853 65.4933C124.551 65.4933 125.924 64.1214 125.924 62.4245C125.924 60.7276 124.551 59.3556 122.853 59.3556C121.155 59.3556 119.782 60.7276 119.782 62.4245C119.782 64.1214 121.155 65.4933 122.853 65.4933Z" fill="black" fill-opacity="0.5"/>
<path d="M132.445 75.0973C134.151 75.0973 135.534 73.7153 135.534 72.0104C135.534 70.3055 134.151 68.9235 132.445 68.9235C130.739 68.9235 129.356 70.3055 129.356 72.0104C129.356 73.7153 130.739 75.0973 132.445 75.0973Z" fill="black" fill-opacity="0.5"/>
<path d="M138.604 87.192C140.321 87.192 141.693 85.802 141.693 84.1051C141.693 82.3902 140.302 81.0182 138.604 81.0182C136.888 81.0182 135.515 82.4082 135.515 84.1051C135.497 85.802 136.888 87.192 138.604 87.192Z" fill="black" fill-opacity="0.5"/>
<path d="M151.556 99.9733C152.929 99.9733 154.049 98.854 154.049 97.482C154.049 96.1101 152.929 94.9908 151.556 94.9908C150.183 94.9908 149.063 96.1101 149.063 97.482C149.063 98.854 150.183 99.9733 151.556 99.9733Z" fill="black" fill-opacity="0.5"/>
<path d="M149.858 113.44C151.231 113.44 152.351 112.321 152.351 110.949C152.351 109.577 151.231 108.458 149.858 108.458C148.485 108.458 147.365 109.577 147.365 110.949C147.365 112.321 148.485 113.44 149.858 113.44Z" fill="black" fill-opacity="0.5"/>
<path d="M144.855 126.058C146.231 126.058 147.347 124.943 147.347 123.567C147.347 122.191 146.231 121.076 144.855 121.076C143.478 121.076 142.362 122.191 142.362 123.567C142.362 124.943 143.478 126.058 144.855 126.058Z" fill="black" fill-opacity="0.5"/>
<path d="M136.87 137.052C138.243 137.052 139.363 135.933 139.363 134.561C139.363 133.189 138.243 132.07 136.87 132.07C135.497 132.07 134.378 133.189 134.378 134.561C134.378 135.933 135.497 137.052 136.87 137.052Z" fill="black" fill-opacity="0.5"/>
<path d="M126.411 145.7C127.784 145.7 128.904 144.58 128.904 143.208C128.904 141.836 127.784 140.717 126.411 140.717C125.038 140.717 123.918 141.836 123.918 143.208C123.918 144.58 125.02 145.7 126.411 145.7Z" fill="black" fill-opacity="0.5"/>
<path d="M114.11 151.476C115.483 151.476 116.603 150.357 116.603 148.985C116.603 147.613 115.483 146.494 114.11 146.494C112.737 146.494 111.617 147.613 111.617 148.985C111.617 150.357 112.737 151.476 114.11 151.476Z" fill="black" fill-opacity="0.5"/>
<path d="M100.779 154.021C102.151 154.021 103.271 152.902 103.271 151.53C103.271 150.158 102.151 149.039 100.779 149.039C99.4057 149.039 98.2858 150.158 98.2858 151.53C98.2858 152.902 99.3877 154.021 100.779 154.021Z" fill="black" fill-opacity="0.5"/>
<path d="M87.2126 153.173C88.5855 153.173 89.7054 152.054 89.7054 150.682C89.7054 149.31 88.5855 148.19 87.2126 148.19C85.8397 148.19 84.7198 149.31 84.7198 150.682C84.7198 152.054 85.8397 153.173 87.2126 153.173Z" fill="black" fill-opacity="0.5"/>
<path d="M74.2969 148.985C75.6698 148.985 76.7897 147.866 76.7897 146.494C76.7897 145.122 75.6698 144.002 74.2969 144.002C72.924 144.002 71.8041 145.122 71.8041 146.494C71.8041 147.866 72.924 148.985 74.2969 148.985Z" fill="black" fill-opacity="0.5"/>
<path d="M62.8263 141.674C64.1831 141.674 65.283 140.574 65.283 139.219C65.283 137.863 64.1831 136.763 62.8263 136.763C61.4695 136.763 60.3696 137.863 60.3696 139.219C60.3696 140.574 61.4695 141.674 62.8263 141.674Z" fill="black" fill-opacity="0.5"/>
<path d="M53.5234 131.763C54.8802 131.763 55.9801 130.664 55.9801 129.308C55.9801 127.952 54.8802 126.853 53.5234 126.853C52.1666 126.853 51.0667 127.952 51.0667 129.308C51.0667 130.664 52.1666 131.763 53.5234 131.763Z" fill="black" fill-opacity="0.5"/>
<path d="M46.9843 119.867C48.3411 119.867 49.441 118.768 49.441 117.412C49.441 116.056 48.3411 114.957 46.9843 114.957C45.6275 114.957 44.5276 116.056 44.5276 117.412C44.5276 118.768 45.6275 119.867 46.9843 119.867Z" fill="black" fill-opacity="0.5"/>
<path d="M43.6063 106.707C44.943 106.707 46.0449 105.624 46.0449 104.27C46.0449 102.934 44.9611 101.833 43.6063 101.833C42.2696 101.833 41.1677 102.916 41.1677 104.27C41.1677 105.606 42.2515 106.707 43.6063 106.707Z" fill="black" fill-opacity="0.5"/>
<path d="M43.6063 93.1314C44.943 93.1314 46.0449 92.0483 46.0449 90.6944C46.0449 89.3585 44.9611 88.2573 43.6063 88.2573C42.2696 88.2573 41.1677 89.3405 41.1677 90.6944C41.1677 92.0302 42.2515 93.1314 43.6063 93.1314Z" fill="black" fill-opacity="0.5"/>
<path d="M46.9842 79.9714C48.3209 79.9714 49.4228 78.8883 49.4228 77.5343C49.4228 76.1985 48.339 75.0973 46.9842 75.0973C45.6294 75.0973 44.5456 76.1804 44.5456 77.5343C44.5456 78.8883 45.6294 79.9714 46.9842 79.9714Z" fill="black" fill-opacity="0.5"/>
<path d="M53.5234 68.0747C54.8601 68.0747 55.962 66.9915 55.962 65.6376C55.962 64.3018 54.8782 63.2006 53.5234 63.2006C52.1867 63.2006 51.0848 64.2837 51.0848 65.6376C51.0848 66.9915 52.1867 68.0747 53.5234 68.0747Z" fill="black" fill-opacity="0.5"/>
<path d="M62.8263 58.1821C64.1631 58.1821 65.265 57.0989 65.265 55.745C65.265 54.4092 64.1811 53.308 62.8263 53.308C61.4715 53.308 60.3877 54.3911 60.3877 55.745C60.3877 57.0989 61.4715 58.1821 62.8263 58.1821Z" fill="black" fill-opacity="0.5"/>
<path d="M74.2969 50.9073C75.6336 50.9073 76.7355 49.8242 76.7355 48.4703C76.7355 47.1344 75.6517 46.0332 74.2969 46.0332C72.9421 46.0332 71.8583 47.1163 71.8583 48.4703C71.8583 49.8242 72.9421 50.9073 74.2969 50.9073Z" fill="black" fill-opacity="0.5"/>
<path d="M87.2126 46.7193C88.5493 46.7193 89.6513 45.6362 89.6513 44.2823C89.6513 42.9464 88.5674 41.8452 87.2126 41.8452C85.8759 41.8452 84.774 42.9283 84.774 44.2823C84.774 45.6362 85.8759 46.7193 87.2126 46.7193Z" fill="black" fill-opacity="0.5"/>
<path d="M100.779 45.8707C102.115 45.8707 103.217 44.7875 103.217 43.4336C103.217 42.0978 102.133 40.9966 100.779 40.9966C99.4238 40.9966 98.34 42.0797 98.34 43.4336C98.34 44.7695 99.4238 45.8707 100.779 45.8707Z" fill="black" fill-opacity="0.5"/>
<path d="M114.11 48.434C115.467 48.434 116.566 47.3348 116.566 45.9789C116.566 44.623 115.467 43.5238 114.11 43.5238C112.753 43.5238 111.653 44.623 111.653 45.9789C111.653 47.3348 112.753 48.434 114.11 48.434Z" fill="black" fill-opacity="0.5"/>
<path d="M126.411 54.2109C127.768 54.2109 128.868 53.1117 128.868 51.7558C128.868 50.3998 127.768 49.3007 126.411 49.3007C125.054 49.3007 123.955 50.3998 123.955 51.7558C123.955 53.1117 125.054 54.2109 126.411 54.2109Z" fill="black" fill-opacity="0.5"/>
<path d="M136.87 62.8578C138.227 62.8578 139.327 61.7586 139.327 60.4027C139.327 59.0468 138.227 57.9476 136.87 57.9476C135.514 57.9476 134.414 59.0468 134.414 60.4027C134.414 61.7586 135.514 62.8578 136.87 62.8578Z" fill="black" fill-opacity="0.5"/>
<path d="M144.855 73.8516C146.211 73.8516 147.311 72.7524 147.311 71.3965C147.311 70.0406 146.211 68.9414 144.855 68.9414C143.498 68.9414 142.398 70.0406 142.398 71.3965C142.398 72.7524 143.498 73.8516 144.855 73.8516Z" fill="black" fill-opacity="0.5"/>
<path d="M149.858 86.5063C151.235 86.5063 152.351 85.391 152.351 84.0151C152.351 82.6393 151.235 81.5239 149.858 81.5239C148.482 81.5239 147.365 82.6393 147.365 84.0151C147.365 85.391 148.482 86.5063 149.858 86.5063Z" fill="black" fill-opacity="0.5"/>
<path d="M162.395 99.3776C163.442 99.3776 164.291 98.529 164.291 97.4822C164.291 96.4353 163.442 95.5867 162.395 95.5867C161.347 95.5867 160.498 96.4353 160.498 97.4822C160.498 98.529 161.347 99.3776 162.395 99.3776Z" fill="black" fill-opacity="0.5"/>
<path d="M160.968 112.899C162.015 112.899 162.864 112.05 162.864 111.003C162.864 109.956 162.015 109.108 160.968 109.108C159.92 109.108 159.071 109.956 159.071 111.003C159.071 112.05 159.92 112.899 160.968 112.899Z" fill="black" fill-opacity="0.5"/>
<path d="M156.777 125.806C157.824 125.806 158.673 124.957 158.673 123.91C158.673 122.863 157.824 122.015 156.777 122.015C155.729 122.015 154.88 122.863 154.88 123.91C154.88 124.957 155.729 125.806 156.777 125.806Z" fill="black" fill-opacity="0.5"/>
<path d="M149.985 137.576C151.032 137.576 151.881 136.727 151.881 135.68C151.881 134.633 151.032 133.785 149.985 133.785C148.937 133.785 148.088 134.633 148.088 135.68C148.088 136.727 148.937 137.576 149.985 137.576Z" fill="black" fill-opacity="0.5"/>
<path d="M140.88 147.667C141.928 147.667 142.777 146.819 142.777 145.772C142.777 144.725 141.928 143.876 140.88 143.876C139.833 143.876 138.984 144.725 138.984 145.772C138.984 146.819 139.833 147.667 140.88 147.667Z" fill="black" fill-opacity="0.5"/>
<path d="M129.88 155.664C130.927 155.664 131.776 154.816 131.776 153.769C131.776 152.722 130.927 151.873 129.88 151.873C128.832 151.873 127.983 152.722 127.983 153.769C127.983 154.816 128.832 155.664 129.88 155.664Z" fill="black" fill-opacity="0.5"/>
<path d="M117.47 161.188C118.517 161.188 119.366 160.34 119.366 159.293C119.366 158.246 118.517 157.397 117.47 157.397C116.422 157.397 115.573 158.246 115.573 159.293C115.573 160.34 116.422 161.188 117.47 161.188Z" fill="black" fill-opacity="0.5"/>
<path d="M104.157 164.004C105.204 164.004 106.053 163.156 106.053 162.109C106.053 161.062 105.204 160.213 104.157 160.213C103.109 160.213 102.26 161.062 102.26 162.109C102.26 163.156 103.109 164.004 104.157 164.004Z" fill="black" fill-opacity="0.5"/>
<path d="M90.5725 163.968C91.6021 163.968 92.4331 163.138 92.4331 162.109C92.4331 161.08 91.6021 160.25 90.5725 160.25C89.5429 160.25 88.7119 161.08 88.7119 162.109C88.7119 163.138 89.5429 163.968 90.5725 163.968Z" fill="black" fill-opacity="0.5"/>
<path d="M77.2775 161.152C78.3071 161.152 79.138 160.322 79.138 159.293C79.138 158.264 78.3071 157.433 77.2775 157.433C76.2478 157.433 75.4169 158.264 75.4169 159.293C75.4169 160.322 76.2478 161.152 77.2775 161.152Z" fill="black" fill-opacity="0.5"/>
<path d="M64.8495 155.628C65.8771 155.628 66.7101 154.796 66.7101 153.769C66.7101 152.742 65.8771 151.909 64.8495 151.909C63.8219 151.909 62.9889 152.742 62.9889 153.769C62.9889 154.796 63.8219 155.628 64.8495 155.628Z" fill="black" fill-opacity="0.5"/>
<path d="M53.8486 147.649C54.8782 147.649 55.7091 146.819 55.7091 145.79C55.7091 144.761 54.8782 143.93 53.8486 143.93C52.8189 143.93 51.988 144.761 51.988 145.79C51.988 146.819 52.8189 147.649 53.8486 147.649Z" fill="black" fill-opacity="0.5"/>
<path d="M44.7624 137.522C45.7739 137.522 46.5868 136.71 46.5868 135.699C46.5868 134.688 45.7739 133.875 44.7624 133.875C43.7508 133.875 42.9379 134.688 42.9379 135.699C42.9198 136.691 43.7508 137.522 44.7624 137.522Z" fill="black" fill-opacity="0.5"/>
<path d="M37.9523 125.734C38.9599 125.734 39.7767 124.917 39.7767 123.91C39.7767 122.903 38.9599 122.087 37.9523 122.087C36.9446 122.087 36.1278 122.903 36.1278 123.91C36.1278 124.917 36.9446 125.734 37.9523 125.734Z" fill="black" fill-opacity="0.5"/>
<path d="M33.7615 112.826C34.7691 112.826 35.5859 112.01 35.5859 111.003C35.5859 109.996 34.7691 109.18 33.7615 109.18C32.7538 109.18 31.937 109.996 31.937 111.003C31.937 112.01 32.7538 112.826 33.7615 112.826Z" fill="black" fill-opacity="0.5"/>
<path d="M32.3344 99.3055C33.342 99.3055 34.1589 98.4892 34.1589 97.4822C34.1589 96.4752 33.342 95.6589 32.3344 95.6589C31.3268 95.6589 30.5099 96.4752 30.5099 97.4822C30.5099 98.4892 31.3268 99.3055 32.3344 99.3055Z" fill="black" fill-opacity="0.5"/>
<path d="M33.7615 85.8019C34.7691 85.8019 35.5859 84.9856 35.5859 83.9787C35.5859 82.9717 34.7691 82.1554 33.7615 82.1554C32.7538 82.1554 31.937 82.9717 31.937 83.9787C31.937 84.9856 32.7538 85.8019 33.7615 85.8019Z" fill="black" fill-opacity="0.5"/>
<path d="M37.9523 72.8586C38.9458 72.8586 39.7587 72.0463 39.7587 71.0534C39.7587 70.0605 38.9458 69.2482 37.9523 69.2482C36.9588 69.2482 36.1459 70.0605 36.1459 71.0534C36.164 72.0463 36.9588 72.8586 37.9523 72.8586Z" fill="black" fill-opacity="0.5"/>
<path d="M44.7624 61.0886C45.7601 61.0886 46.5688 60.2804 46.5688 59.2834C46.5688 58.2864 45.7601 57.4781 44.7624 57.4781C43.7648 57.4781 42.9561 58.2864 42.9561 59.2834C42.9561 60.2804 43.7648 61.0886 44.7624 61.0886Z" fill="black" fill-opacity="0.5"/>
<path d="M53.8486 50.9975C54.8421 50.9975 55.655 50.1852 55.655 49.1923C55.655 48.1994 54.8421 47.3871 53.8486 47.3871C52.8551 47.3871 52.0422 48.1994 52.0422 49.1923C52.0422 50.1852 52.8551 50.9975 53.8486 50.9975Z" fill="black" fill-opacity="0.5"/>
<path d="M64.8495 43.0002C65.843 43.0002 66.6559 42.1879 66.6559 41.195C66.6559 40.2021 65.843 39.3898 64.8495 39.3898C63.856 39.3898 63.0431 40.2021 63.0431 41.195C63.0431 42.1879 63.856 43.0002 64.8495 43.0002Z" fill="black" fill-opacity="0.5"/>
<path d="M77.2775 37.4762C78.271 37.4762 79.0839 36.6638 79.0839 35.6709C79.0839 34.6781 78.271 33.8657 77.2775 33.8657C76.2839 33.8657 75.4711 34.6781 75.4711 35.6709C75.4711 36.6638 76.2839 37.4762 77.2775 37.4762Z" fill="black" fill-opacity="0.5"/>
<path d="M90.5725 34.6783C91.5801 34.6783 92.397 33.862 92.397 32.855C92.397 31.848 91.5801 31.0317 90.5725 31.0317C89.5649 31.0317 88.748 31.848 88.748 32.855C88.748 33.862 89.5649 34.6783 90.5725 34.6783Z" fill="black" fill-opacity="0.5"/>
<path d="M104.157 34.6783C105.164 34.6783 105.981 33.862 105.981 32.855C105.981 31.848 105.164 31.0317 104.157 31.0317C103.149 31.0317 102.332 31.848 102.332 32.855C102.332 33.862 103.149 34.6783 104.157 34.6783Z" fill="black" fill-opacity="0.5"/>
<path d="M117.47 37.5123C118.481 37.5123 119.294 36.6999 119.294 35.689C119.294 34.6781 118.481 33.8657 117.47 33.8657C116.458 33.8657 115.645 34.6781 115.645 35.689C115.627 36.6819 116.458 37.5123 117.47 37.5123Z" fill="black" fill-opacity="0.5"/>
<path d="M129.88 43.0185C130.887 43.0185 131.704 42.2022 131.704 41.1952C131.704 40.1883 130.887 39.3719 129.88 39.3719C128.872 39.3719 128.055 40.1883 128.055 41.1952C128.055 42.2022 128.872 43.0185 129.88 43.0185Z" fill="black" fill-opacity="0.5"/>
<path d="M140.88 51.0519C141.91 51.0519 142.741 50.2215 142.741 49.1925C142.741 48.1635 141.91 47.3331 140.88 47.3331C139.851 47.3331 139.02 48.1635 139.02 49.1925C139.02 50.2215 139.851 51.0519 140.88 51.0519Z" fill="black" fill-opacity="0.5"/>
<path d="M149.985 61.1429C151.014 61.1429 151.845 60.3125 151.845 59.2836C151.845 58.2546 151.014 57.4242 149.985 57.4242C148.955 57.4242 148.124 58.2546 148.124 59.2836C148.106 60.3125 148.955 61.1429 149.985 61.1429Z" fill="black" fill-opacity="0.5"/>
<path d="M156.777 72.913C157.806 72.913 158.637 72.0826 158.637 71.0536C158.637 70.0246 157.806 69.1942 156.777 69.1942C155.747 69.1942 154.916 70.0246 154.916 71.0536C154.916 72.0826 155.747 72.913 156.777 72.913Z" fill="black" fill-opacity="0.5"/>
<path d="M160.968 85.8385C161.997 85.8385 162.828 85.0081 162.828 83.9791C162.828 82.9502 161.997 82.1198 160.968 82.1198C159.938 82.1198 159.107 82.9502 159.107 83.9791C159.107 85.0081 159.956 85.8385 160.968 85.8385Z" fill="black" fill-opacity="0.5"/>
<path d="M173.233 98.7455C173.931 98.7455 174.497 98.1797 174.497 97.4818C174.497 96.7839 173.931 96.2181 173.233 96.2181C172.535 96.2181 171.969 96.7839 171.969 97.4818C171.969 98.1797 172.535 98.7455 173.233 98.7455Z" fill="black" fill-opacity="0.5"/>
<path d="M172.023 112.285C172.721 112.285 173.287 111.719 173.287 111.021C173.287 110.323 172.721 109.757 172.023 109.757C171.324 109.757 170.758 110.323 170.758 111.021C170.758 111.719 171.324 112.285 172.023 112.285Z" fill="black" fill-opacity="0.5"/>
<path d="M168.392 125.391C169.096 125.391 169.656 124.831 169.656 124.127C169.656 123.423 169.096 122.863 168.392 122.863C167.687 122.863 167.127 123.423 167.127 124.127C167.127 124.813 167.705 125.391 168.392 125.391Z" fill="black" fill-opacity="0.5"/>
<path d="M162.503 137.63C163.208 137.63 163.767 137.07 163.767 136.366C163.767 135.662 163.208 135.103 162.503 135.103C161.799 135.103 161.239 135.662 161.239 136.366C161.239 137.07 161.799 137.63 162.503 137.63Z" fill="black" fill-opacity="0.5"/>
<path d="M154.501 148.624C155.199 148.624 155.765 148.058 155.765 147.36C155.765 146.662 155.199 146.097 154.501 146.097C153.802 146.097 153.236 146.662 153.236 147.36C153.236 148.058 153.802 148.624 154.501 148.624Z" fill="black" fill-opacity="0.5"/>
<path d="M144.674 158.029C145.372 158.029 145.938 157.463 145.938 156.765C145.938 156.068 145.372 155.502 144.674 155.502C143.976 155.502 143.409 156.068 143.409 156.765C143.409 157.463 143.976 158.029 144.674 158.029Z" fill="black" fill-opacity="0.5"/>
<path d="M133.312 165.521C134.01 165.521 134.576 164.955 134.576 164.257C134.576 163.559 134.01 162.993 133.312 162.993C132.613 162.993 132.047 163.559 132.047 164.257C132.047 164.955 132.613 165.521 133.312 165.521Z" fill="black" fill-opacity="0.5"/>
<path d="M120.811 170.846C121.516 170.846 122.076 170.287 122.076 169.583C122.076 168.879 121.516 168.319 120.811 168.319C120.107 168.319 119.547 168.879 119.547 169.583C119.547 170.287 120.107 170.846 120.811 170.846Z" fill="black" fill-opacity="0.5"/>
<path d="M107.553 173.879C108.251 173.879 108.817 173.313 108.817 172.615C108.817 171.917 108.251 171.352 107.553 171.352C106.854 171.352 106.288 171.917 106.288 172.615C106.288 173.313 106.854 173.879 107.553 173.879Z" fill="black" fill-opacity="0.5"/>
<path d="M93.9685 174.492C94.6669 174.492 95.233 173.927 95.233 173.229C95.233 172.531 94.6669 171.965 93.9685 171.965C93.2702 171.965 92.704 172.531 92.704 173.229C92.704 173.927 93.2702 174.492 93.9685 174.492Z" fill="black" fill-opacity="0.5"/>
<path d="M80.4928 172.669C81.1973 172.669 81.7573 172.11 81.7573 171.406C81.7573 170.702 81.1973 170.142 80.4928 170.142C79.7883 170.142 79.2283 170.702 79.2283 171.406C79.2283 172.092 79.7883 172.669 80.4928 172.669Z" fill="black" fill-opacity="0.5"/>
<path d="M67.541 168.427C68.2275 168.427 68.7694 167.868 68.7694 167.2C68.7694 166.514 68.2094 165.972 67.541 165.972C66.8546 165.972 66.3127 166.532 66.3127 167.2C66.3127 167.886 66.8727 168.427 67.541 168.427Z" fill="black" fill-opacity="0.5"/>
<path d="M55.5647 161.983C56.2511 161.983 56.793 161.423 56.793 160.755C56.793 160.069 56.233 159.527 55.5647 159.527C54.8782 159.527 54.3363 160.087 54.3363 160.755C54.3363 161.441 54.8963 161.983 55.5647 161.983Z" fill="black" fill-opacity="0.5"/>
<path d="M44.943 153.516C45.6294 153.516 46.1713 152.957 46.1713 152.289C46.1713 151.603 45.6114 151.061 44.943 151.061C44.2566 151.061 43.7147 151.621 43.7147 152.289C43.6966 152.957 44.2566 153.516 44.943 153.516Z" fill="black" fill-opacity="0.5"/>
<path d="M35.9834 143.28C36.6698 143.28 37.2117 142.721 37.2117 142.053C37.2117 141.367 36.6517 140.825 35.9834 140.825C35.2969 140.825 34.755 141.385 34.755 142.053C34.755 142.721 35.315 143.28 35.9834 143.28Z" fill="black" fill-opacity="0.5"/>
<path d="M29.0106 131.619C29.6971 131.619 30.239 131.059 30.239 130.391C30.239 129.705 29.679 129.163 29.0106 129.163C28.3242 129.163 27.7823 129.723 27.7823 130.391C27.7823 131.059 28.3242 131.619 29.0106 131.619Z" fill="black" fill-opacity="0.5"/>
<path d="M24.2418 118.856C24.9101 118.856 25.4521 118.314 25.4521 117.646C25.4521 116.978 24.9101 116.437 24.2418 116.437C23.5734 116.437 23.0315 116.978 23.0315 117.646C23.0315 118.314 23.5734 118.856 24.2418 118.856Z" fill="black" fill-opacity="0.5"/>
<path d="M21.8032 105.497C22.4716 105.497 23.0135 104.956 23.0135 104.288C23.0135 103.62 22.4716 103.078 21.8032 103.078C21.1348 103.078 20.5929 103.62 20.5929 104.288C20.5929 104.956 21.1348 105.497 21.8032 105.497Z" fill="black" fill-opacity="0.5"/>
<path d="M21.8032 91.9036C22.4716 91.9036 23.0135 91.3621 23.0135 90.6941C23.0135 90.0261 22.4716 89.4846 21.8032 89.4846C21.1348 89.4846 20.5929 90.0261 20.5929 90.6941C20.5929 91.3621 21.1348 91.9036 21.8032 91.9036Z" fill="black" fill-opacity="0.5"/>
<path d="M24.2418 78.509C24.9101 78.509 25.4521 77.9674 25.4521 77.2995C25.4521 76.6315 24.9101 76.09 24.2418 76.09C23.5734 76.09 23.0315 76.6315 23.0315 77.2995C23.0315 77.9674 23.5734 78.509 24.2418 78.509Z" fill="black" fill-opacity="0.5"/>
<path d="M29.0107 65.8002C29.6791 65.8002 30.221 65.2587 30.221 64.5907C30.221 63.9227 29.6791 63.3812 29.0107 63.3812C28.3423 63.3812 27.8004 63.9227 27.8004 64.5907C27.8004 65.2587 28.3423 65.8002 29.0107 65.8002Z" fill="black" fill-opacity="0.5"/>
<path d="M35.9834 54.1207C36.6518 54.1207 37.1936 53.5791 37.1936 52.9112C37.1936 52.2432 36.6518 51.7017 35.9834 51.7017C35.3149 51.7017 34.7731 52.2432 34.7731 52.9112C34.7731 53.5791 35.3149 54.1207 35.9834 54.1207Z" fill="black" fill-opacity="0.5"/>
<path d="M44.9431 43.8851C45.6115 43.8851 46.1534 43.3436 46.1534 42.6756C46.1534 42.0076 45.6115 41.4661 44.9431 41.4661C44.2747 41.4661 43.7328 42.0076 43.7328 42.6756C43.7328 43.3436 44.2747 43.8851 44.9431 43.8851Z" fill="black" fill-opacity="0.5"/>
<path d="M55.5647 35.4183C56.2331 35.4183 56.7749 34.8767 56.7749 34.2088C56.7749 33.5408 56.2331 32.9993 55.5647 32.9993C54.8962 32.9993 54.3544 33.5408 54.3544 34.2088C54.3544 34.8767 54.8962 35.4183 55.5647 35.4183Z" fill="black" fill-opacity="0.5"/>
<path d="M67.541 28.9737C68.2093 28.9737 68.7513 28.4322 68.7513 27.7642C68.7513 27.0963 68.2093 26.5547 67.541 26.5547C66.8726 26.5547 66.3307 27.0963 66.3307 27.7642C66.3488 28.4322 66.8907 28.9737 67.541 28.9737Z" fill="black" fill-opacity="0.5"/>
<path d="M80.4928 24.7676C81.1612 24.7676 81.7031 24.2261 81.7031 23.5581C81.7031 22.8901 81.1612 22.3486 80.4928 22.3486C79.8244 22.3486 79.2825 22.8901 79.2825 23.5581C79.2825 24.2261 79.8244 24.7676 80.4928 24.7676Z" fill="black" fill-opacity="0.5"/>
<path d="M93.9685 22.9445C94.6369 22.9445 95.1787 22.4029 95.1787 21.735C95.1787 21.067 94.6369 20.5255 93.9685 20.5255C93.3 20.5255 92.7582 21.067 92.7582 21.735C92.7582 22.4029 93.3 22.9445 93.9685 22.9445Z" fill="black" fill-opacity="0.5"/>
<path d="M107.553 23.5581C108.221 23.5581 108.763 23.0166 108.763 22.3486C108.763 21.6806 108.221 21.1391 107.553 21.1391C106.884 21.1391 106.342 21.6806 106.342 22.3486C106.342 23.0166 106.884 23.5581 107.553 23.5581Z" fill="black" fill-opacity="0.5"/>
<path d="M120.811 26.591C121.48 26.591 122.022 26.0495 122.022 25.3815C122.022 24.7135 121.48 24.172 120.811 24.172C120.143 24.172 119.601 24.7135 119.601 25.3815C119.601 26.0495 120.143 26.591 120.811 26.591Z" fill="black" fill-opacity="0.5"/>
<path d="M133.312 31.9523C133.998 31.9523 134.54 31.3927 134.54 30.7247C134.54 30.0388 133.98 29.4972 133.312 29.4972C132.625 29.4972 132.083 30.0568 132.083 30.7247C132.083 31.3927 132.643 31.9523 133.312 31.9523Z" fill="black" fill-opacity="0.5"/>
<path d="M144.674 39.4442C145.36 39.4442 145.902 38.8846 145.902 38.2167C145.902 37.5307 145.342 36.9891 144.674 36.9891C143.988 36.9891 143.446 37.5488 143.446 38.2167C143.446 38.8846 143.988 39.4442 144.674 39.4442Z" fill="black" fill-opacity="0.5"/>
<path d="M154.501 48.8312C155.187 48.8312 155.729 48.2716 155.729 47.6036C155.729 46.9177 155.169 46.3761 154.501 46.3761C153.832 46.3761 153.272 46.9357 153.272 47.6036C153.272 48.2716 153.814 48.8312 154.501 48.8312Z" fill="black" fill-opacity="0.5"/>
<path d="M162.503 59.8249C163.189 59.8249 163.731 59.2652 163.731 58.5973C163.731 57.9113 163.171 57.3698 162.503 57.3698C161.817 57.3698 161.275 57.9294 161.275 58.5973C161.257 59.2833 161.817 59.8249 162.503 59.8249Z" fill="black" fill-opacity="0.5"/>
<path d="M168.392 72.1005C169.096 72.1005 169.656 71.5409 169.656 70.8369C169.656 70.1329 169.096 69.5732 168.392 69.5732C167.687 69.5732 167.127 70.1329 167.127 70.8369C167.127 71.5409 167.705 72.1005 168.392 72.1005Z" fill="black" fill-opacity="0.5"/>
<path d="M172.023 85.2063C172.721 85.2063 173.287 84.6405 173.287 83.9426C173.287 83.2447 172.721 82.679 172.023 82.679C171.324 82.679 170.758 83.2447 170.758 83.9426C170.758 84.6405 171.324 85.2063 172.023 85.2063Z" fill="black" fill-opacity="0.5"/>
<path d="M184.071 98.1498C184.441 98.1498 184.74 97.8508 184.74 97.4819C184.74 97.113 184.441 96.814 184.071 96.814C183.702 96.814 183.403 97.113 183.403 97.4819C183.403 97.8508 183.702 98.1498 184.071 98.1498Z" fill="black" fill-opacity="0.5"/>
<path d="M183.006 111.707C183.367 111.707 183.674 111.418 183.674 111.039C183.674 110.678 183.385 110.371 183.006 110.371C182.644 110.371 182.337 110.66 182.337 111.039C182.337 111.4 182.644 111.707 183.006 111.707Z" fill="black" fill-opacity="0.5"/>
<path d="M179.826 124.885C180.176 124.885 180.459 124.602 180.459 124.253C180.459 123.904 180.176 123.622 179.826 123.622C179.477 123.622 179.194 123.904 179.194 124.253C179.194 124.602 179.477 124.885 179.826 124.885Z" fill="black" fill-opacity="0.5"/>
<path d="M174.624 137.486C174.985 137.486 175.292 137.197 175.292 136.818C175.292 136.457 175.003 136.15 174.624 136.15C174.263 136.15 173.956 136.439 173.956 136.818C173.956 137.179 174.263 137.486 174.624 137.486Z" fill="black" fill-opacity="0.5"/>
<path d="M167.507 149.039C167.856 149.039 168.139 148.756 168.139 148.407C168.139 148.058 167.856 147.775 167.507 147.775C167.158 147.775 166.874 148.058 166.874 148.407C166.874 148.756 167.158 149.039 167.507 149.039Z" fill="black" fill-opacity="0.5"/>
<path d="M158.673 159.419C159.035 159.419 159.342 159.13 159.342 158.751C159.342 158.39 159.053 158.083 158.673 158.083C158.312 158.083 158.005 158.372 158.005 158.751C158.023 159.112 158.312 159.419 158.673 159.419Z" fill="black" fill-opacity="0.5"/>
<path d="M148.341 168.21C148.69 168.21 148.973 167.928 148.973 167.579C148.973 167.23 148.69 166.947 148.341 166.947C147.992 166.947 147.709 167.23 147.709 167.579C147.709 167.928 147.992 168.21 148.341 168.21Z" fill="black" fill-opacity="0.5"/>
<path d="M136.726 175.341C137.087 175.341 137.394 175.052 137.394 174.673C137.394 174.294 137.105 174.005 136.726 174.005C136.365 174.005 136.057 174.294 136.057 174.673C136.057 175.052 136.365 175.341 136.726 175.341Z" fill="black" fill-opacity="0.5"/>
<path d="M124.153 180.522C124.502 180.522 124.786 180.239 124.786 179.89C124.786 179.541 124.502 179.258 124.153 179.258C123.804 179.258 123.521 179.541 123.521 179.89C123.521 180.239 123.804 180.522 124.153 180.522Z" fill="black" fill-opacity="0.5"/>
<path d="M110.931 183.736C111.292 183.736 111.599 183.447 111.599 183.068C111.599 182.707 111.31 182.4 110.931 182.4C110.569 182.4 110.262 182.688 110.262 183.068C110.262 183.429 110.569 183.736 110.931 183.736Z" fill="black" fill-opacity="0.5"/>
<path d="M97.3645 184.8C97.7337 184.8 98.0329 184.501 98.0329 184.133C98.0329 183.764 97.7337 183.465 97.3645 183.465C96.9954 183.465 96.6962 183.764 96.6962 184.133C96.6962 184.501 96.9954 184.8 97.3645 184.8Z" fill="black" fill-opacity="0.5"/>
<path d="M83.7985 183.699C84.1477 183.699 84.4307 183.416 84.4307 183.068C84.4307 182.719 84.1477 182.436 83.7985 182.436C83.4493 182.436 83.1663 182.719 83.1663 183.068C83.1663 183.416 83.4493 183.699 83.7985 183.699Z" fill="black" fill-opacity="0.5"/>
<path d="M70.5757 180.522C70.9249 180.522 71.208 180.239 71.208 179.89C71.208 179.541 70.9249 179.258 70.5757 179.258C70.2265 179.258 69.9435 179.541 69.9435 179.89C69.9435 180.239 70.2265 180.522 70.5757 180.522Z" fill="black" fill-opacity="0.5"/>
<path d="M58.0033 175.323C58.3465 175.323 58.6355 175.034 58.6355 174.691C58.6355 174.348 58.3465 174.059 58.0033 174.059C57.6601 174.059 57.371 174.348 57.371 174.691C57.371 175.034 57.6601 175.323 58.0033 175.323Z" fill="black" fill-opacity="0.5"/>
<path d="M46.4062 168.174C46.7354 168.174 47.0023 167.908 47.0023 167.579C47.0023 167.25 46.7354 166.983 46.4062 166.983C46.0769 166.983 45.8101 167.25 45.8101 167.579C45.8101 167.908 46.0769 168.174 46.4062 168.174Z" fill="black" fill-opacity="0.5"/>
<path d="M36.0556 159.347C36.3807 159.347 36.6517 159.076 36.6517 158.751C36.6517 158.426 36.3807 158.155 36.0556 158.155C35.7304 158.155 35.4595 158.426 35.4595 158.751C35.4595 159.076 35.7304 159.347 36.0556 159.347Z" fill="black" fill-opacity="0.5"/>
<path d="M27.2223 149.021C27.5475 149.021 27.8184 148.75 27.8184 148.425C27.8184 148.1 27.5475 147.83 27.2223 147.83C26.8972 147.83 26.6262 148.1 26.6262 148.425C26.6262 148.75 26.8972 149.021 27.2223 149.021Z" fill="black" fill-opacity="0.5"/>
<path d="M20.1051 137.413C20.4303 137.413 20.7013 137.143 20.7013 136.818C20.7013 136.493 20.4303 136.222 20.1051 136.222C19.78 136.222 19.509 136.493 19.509 136.818C19.509 137.161 19.78 137.413 20.1051 137.413Z" fill="black" fill-opacity="0.5"/>
<path d="M14.9027 124.867C15.2279 124.867 15.4989 124.596 15.4989 124.271C15.4989 123.947 15.2279 123.658 14.9027 123.658C14.5776 123.658 14.3066 123.929 14.3066 124.253C14.3066 124.578 14.5776 124.867 14.9027 124.867Z" fill="black" fill-opacity="0.5"/>
<path d="M11.7235 111.635C12.0486 111.635 12.3196 111.364 12.3196 111.039C12.3196 110.714 12.0486 110.444 11.7235 110.444C11.3983 110.444 11.1274 110.714 11.1274 111.039C11.1274 111.364 11.3983 111.635 11.7235 111.635Z" fill="black" fill-opacity="0.5"/>
<path d="M10.6577 98.0776C10.9828 98.0776 11.2538 97.8068 11.2538 97.4818C11.2538 97.1569 10.9828 96.8861 10.6577 96.8861C10.3325 96.8861 10.0616 97.1569 10.0616 97.4818C10.0616 97.8068 10.3325 98.0776 10.6577 98.0776Z" fill="black" fill-opacity="0.5"/>
<path d="M11.7235 84.5206C12.0486 84.5206 12.3196 84.2498 12.3196 83.9248C12.3196 83.5999 12.0486 83.3291 11.7235 83.3291C11.3983 83.3291 11.1274 83.5999 11.1274 83.9248C11.1274 84.2678 11.3983 84.5206 11.7235 84.5206Z" fill="black" fill-opacity="0.5"/>
<path d="M14.9028 71.2883C15.222 71.2883 15.4808 71.0296 15.4808 70.7106C15.4808 70.3916 15.222 70.1329 14.9028 70.1329C14.5835 70.1329 14.3247 70.3916 14.3247 70.7106C14.3247 71.0296 14.5835 71.2883 14.9028 71.2883Z" fill="black" fill-opacity="0.5"/>
<path d="M20.1051 58.7239C20.4122 58.7239 20.6832 58.4712 20.6832 58.1463C20.6832 57.8394 20.4303 57.5686 20.1051 57.5686C19.78 57.5686 19.5271 57.8213 19.5271 58.1463C19.5452 58.4532 19.7981 58.7239 20.1051 58.7239Z" fill="black" fill-opacity="0.5"/>
<path d="M27.2223 47.1345C27.5416 47.1345 27.8004 46.8758 27.8004 46.5568C27.8004 46.2378 27.5416 45.9791 27.2223 45.9791C26.9031 45.9791 26.6443 46.2378 26.6443 46.5568C26.6443 46.8758 26.9031 47.1345 27.2223 47.1345Z" fill="black" fill-opacity="0.5"/>
<path d="M36.0556 36.7906C36.3627 36.7906 36.6336 36.5379 36.6336 36.2129C36.6336 35.906 36.3807 35.6353 36.0556 35.6353C35.7304 35.6353 35.4775 35.888 35.4775 36.2129C35.4775 36.5198 35.7485 36.7906 36.0556 36.7906Z" fill="black" fill-opacity="0.5"/>
<path d="M46.4062 27.963C46.7254 27.963 46.9842 27.7043 46.9842 27.3853C46.9842 27.0662 46.7254 26.8076 46.4062 26.8076C46.0869 26.8076 45.8281 27.0662 45.8281 27.3853C45.8281 27.7043 46.0869 27.963 46.4062 27.963Z" fill="black" fill-opacity="0.5"/>
<path d="M58.0032 20.8504C58.3103 20.8504 58.5813 20.5977 58.5813 20.2727C58.5813 19.9659 58.3284 19.6951 58.0032 19.6951C57.6961 19.6951 57.4252 19.9478 57.4252 20.2727C57.4252 20.5977 57.6961 20.8504 58.0032 20.8504Z" fill="black" fill-opacity="0.5"/>
<path d="M70.5757 15.6511C70.895 15.6511 71.1538 15.3924 71.1538 15.0734C71.1538 14.7544 70.895 14.4957 70.5757 14.4957C70.2565 14.4957 69.9977 14.7544 69.9977 15.0734C69.9977 15.3924 70.2565 15.6511 70.5757 15.6511Z" fill="black" fill-opacity="0.5"/>
<path d="M83.7985 12.4919C84.1237 12.4919 84.3946 12.2211 84.3946 11.8962C84.3946 11.5713 84.1237 11.3005 83.7985 11.3005C83.4734 11.3005 83.2024 11.5713 83.2024 11.8962C83.2024 12.2392 83.4734 12.4919 83.7985 12.4919Z" fill="black" fill-opacity="0.5"/>
<path d="M97.3645 11.427C97.6897 11.427 97.9606 11.1562 97.9606 10.8313C97.9606 10.5063 97.6897 10.2355 97.3645 10.2355C97.0394 10.2355 96.7684 10.5063 96.7684 10.8313C96.7684 11.1562 97.0394 11.427 97.3645 11.427Z" fill="black" fill-opacity="0.5"/>
<path d="M110.931 12.4919C111.256 12.4919 111.527 12.2211 111.527 11.8962C111.527 11.5713 111.256 11.3005 110.931 11.3005C110.605 11.3005 110.334 11.5713 110.334 11.8962C110.334 12.2392 110.605 12.4919 110.931 12.4919Z" fill="black" fill-opacity="0.5"/>
<path d="M124.153 15.6694C124.479 15.6694 124.749 15.3986 124.749 15.0736C124.749 14.7487 124.479 14.4779 124.153 14.4779C123.828 14.4779 123.557 14.7487 123.557 15.0736C123.557 15.3986 123.828 15.6694 124.153 15.6694Z" fill="black" fill-opacity="0.5"/>
<path d="M136.726 20.8683C137.051 20.8683 137.322 20.5975 137.322 20.2725C137.322 19.9476 137.051 19.6768 136.726 19.6768C136.401 19.6768 136.13 19.9476 136.13 20.2725C136.13 20.6155 136.401 20.8683 136.726 20.8683Z" fill="black" fill-opacity="0.5"/>
<path d="M148.341 27.9808C148.666 27.9808 148.937 27.71 148.937 27.3851C148.937 27.0602 148.666 26.7894 148.341 26.7894C148.016 26.7894 147.745 27.0602 147.745 27.3851C147.727 27.71 147.998 27.9808 148.341 27.9808Z" fill="black" fill-opacity="0.5"/>
<path d="M158.673 36.8084C158.999 36.8084 159.27 36.5376 159.27 36.2127C159.27 35.8877 158.999 35.6169 158.673 35.6169C158.348 35.6169 158.077 35.8877 158.077 36.2127C158.077 36.5376 158.348 36.8084 158.673 36.8084Z" fill="black" fill-opacity="0.5"/>
<path d="M167.507 47.1524C167.832 47.1524 168.103 46.8816 168.103 46.5567C168.103 46.2317 167.832 45.9609 167.507 45.9609C167.182 45.9609 166.911 46.2317 166.911 46.5567C166.911 46.8816 167.182 47.1524 167.507 47.1524Z" fill="black" fill-opacity="0.5"/>
<path d="M174.624 58.7779C174.973 58.7779 175.256 58.4951 175.256 58.1461C175.256 57.7972 174.973 57.5143 174.624 57.5143C174.275 57.5143 173.992 57.7972 173.992 58.1461C173.992 58.4951 174.275 58.7779 174.624 58.7779Z" fill="black" fill-opacity="0.5"/>
<path d="M179.826 71.3423C180.176 71.3423 180.459 71.0594 180.459 70.7104C180.459 70.3615 180.176 70.0786 179.826 70.0786C179.477 70.0786 179.194 70.3615 179.194 70.7104C179.194 71.0594 179.477 71.3423 179.826 71.3423Z" fill="black" fill-opacity="0.5"/>
<path d="M183.006 84.5566C183.355 84.5566 183.638 84.2737 183.638 83.9248C183.638 83.5759 183.355 83.293 183.006 83.293C182.656 83.293 182.373 83.5759 182.373 83.9248C182.373 84.2737 182.656 84.5566 183.006 84.5566Z" fill="black" fill-opacity="0.5"/>
<path d="M194.91 97.5724C194.96 97.5724 195 97.532 195 97.4821C195 97.4323 194.96 97.3918 194.91 97.3918C194.86 97.3918 194.819 97.4323 194.819 97.4821C194.819 97.532 194.86 97.5724 194.91 97.5724Z" fill="black" fill-opacity="0.5"/>
<path d="M193.97 111.148C194.02 111.148 194.061 111.107 194.061 111.057C194.061 111.008 194.02 110.967 193.97 110.967C193.92 110.967 193.88 111.008 193.88 111.057C193.88 111.107 193.92 111.148 193.97 111.148Z" fill="black" fill-opacity="0.5"/>
<path d="M191.134 124.434C191.184 124.434 191.225 124.394 191.225 124.344C191.225 124.294 191.184 124.253 191.134 124.253C191.084 124.253 191.044 124.294 191.044 124.344C191.044 124.394 191.084 124.434 191.134 124.434Z" fill="black" fill-opacity="0.5"/>
<path d="M186.474 137.215C186.528 137.215 186.564 137.179 186.564 137.125C186.564 137.071 186.528 137.034 186.474 137.034C186.42 137.034 186.384 137.071 186.384 137.125C186.384 137.179 186.438 137.215 186.474 137.215Z" fill="black" fill-opacity="0.5"/>
<path d="M180.097 149.238C180.147 149.238 180.188 149.197 180.188 149.147C180.188 149.097 180.147 149.057 180.097 149.057C180.047 149.057 180.007 149.097 180.007 149.147C180.007 149.197 180.047 149.238 180.097 149.238Z" fill="black" fill-opacity="0.5"/>
<path d="M172.095 160.232C172.145 160.232 172.185 160.191 172.185 160.141C172.185 160.091 172.145 160.051 172.095 160.051C172.045 160.051 172.005 160.091 172.005 160.141C172.005 160.191 172.045 160.232 172.095 160.232Z" fill="black" fill-opacity="0.5"/>
<path d="M162.629 170.016C162.684 170.016 162.72 169.98 162.72 169.926C162.72 169.871 162.684 169.835 162.629 169.835C162.575 169.835 162.539 169.871 162.539 169.926C162.539 169.98 162.593 170.016 162.629 170.016Z" fill="black" fill-opacity="0.5"/>
<path d="M151.918 178.392C151.967 178.392 152.008 178.352 152.008 178.302C152.008 178.252 151.967 178.212 151.918 178.212C151.868 178.212 151.827 178.252 151.827 178.302C151.827 178.352 151.868 178.392 151.918 178.392Z" fill="black" fill-opacity="0.5"/>
<path d="M140.122 185.198C140.172 185.198 140.212 185.157 140.212 185.108C140.212 185.058 140.172 185.017 140.122 185.017C140.072 185.017 140.031 185.058 140.031 185.108C140.031 185.157 140.072 185.198 140.122 185.198Z" fill="black" fill-opacity="0.5"/>
<path d="M127.513 190.288C127.567 190.288 127.603 190.252 127.603 190.198C127.603 190.144 127.567 190.108 127.513 190.108C127.459 190.108 127.423 190.144 127.423 190.198C127.423 190.252 127.459 190.288 127.513 190.288Z" fill="black" fill-opacity="0.5"/>
<path d="M114.308 193.574C114.358 193.574 114.399 193.533 114.399 193.484C114.399 193.434 114.358 193.393 114.308 193.393C114.259 193.393 114.218 193.434 114.218 193.484C114.218 193.533 114.259 193.574 114.308 193.574Z" fill="black" fill-opacity="0.5"/>
<path d="M100.779 195C100.828 195 100.869 194.96 100.869 194.91C100.869 194.86 100.828 194.819 100.779 194.819C100.729 194.819 100.688 194.86 100.688 194.91C100.688 194.96 100.729 195 100.779 195Z" fill="black" fill-opacity="0.5"/>
<path d="M87.1765 194.513C87.2307 194.513 87.2668 194.476 87.2668 194.422C87.2668 194.368 87.2307 194.332 87.1765 194.332C87.1223 194.332 87.0862 194.368 87.0862 194.422C87.0862 194.476 87.1223 194.513 87.1765 194.513Z" fill="black" fill-opacity="0.5"/>
<path d="M73.7731 192.166C73.8272 192.166 73.8634 192.13 73.8634 192.076C73.8634 192.021 73.8272 191.985 73.7731 191.985C73.7189 191.985 73.6827 192.021 73.6827 192.076C73.6827 192.112 73.7189 192.166 73.7731 192.166Z" fill="black" fill-opacity="0.5"/>
<path d="M60.8212 187.96C60.8754 187.96 60.9115 187.924 60.9115 187.869C60.9115 187.815 60.8754 187.779 60.8212 187.779C60.767 187.779 60.7309 187.815 60.7309 187.869C60.7309 187.924 60.7851 187.96 60.8212 187.96Z" fill="black" fill-opacity="0.5"/>
<path d="M48.5919 181.966C48.628 181.966 48.6461 181.948 48.6461 181.912C48.6461 181.876 48.628 181.858 48.5919 181.858C48.5558 181.858 48.5377 181.876 48.5377 181.912C48.5377 181.93 48.5558 181.966 48.5919 181.966Z" fill="black" fill-opacity="0.5"/>
<path d="M37.32 174.366C37.3562 174.366 37.3742 174.348 37.3742 174.312C37.3742 174.276 37.3562 174.258 37.32 174.258C37.2839 174.258 37.2659 174.276 37.2659 174.312C37.2478 174.33 37.2839 174.366 37.32 174.366Z" fill="black" fill-opacity="0.5"/>
<path d="M27.2043 165.268C27.2404 165.268 27.2585 165.25 27.2585 165.214C27.2585 165.178 27.2404 165.16 27.2043 165.16C27.1681 165.16 27.1501 165.178 27.1501 165.214C27.132 165.232 27.1681 165.268 27.2043 165.268Z" fill="black" fill-opacity="0.5"/>
<path d="M18.4432 154.834C18.4732 154.834 18.4974 154.81 18.4974 154.78C18.4974 154.75 18.4732 154.725 18.4432 154.725C18.4133 154.725 18.389 154.75 18.389 154.78C18.389 154.81 18.4133 154.834 18.4432 154.834Z" fill="black" fill-opacity="0.5"/>
<path d="M11.2358 143.317C11.2719 143.317 11.29 143.299 11.29 143.262C11.29 143.226 11.2719 143.208 11.2358 143.208C11.1996 143.208 11.1816 143.226 11.1816 143.262C11.1816 143.28 11.1996 143.317 11.2358 143.317Z" fill="black" fill-opacity="0.5"/>
<path d="M5.70818 130.878C5.74431 130.878 5.76237 130.86 5.76237 130.824C5.76237 130.788 5.74431 130.77 5.70818 130.77C5.67206 130.77 5.65399 130.788 5.65399 130.824C5.65399 130.86 5.67206 130.878 5.70818 130.878Z" fill="black" fill-opacity="0.5"/>
<path d="M1.95092 117.809C1.98085 117.809 2.00511 117.785 2.00511 117.755C2.00511 117.725 1.98085 117.701 1.95092 117.701C1.92099 117.701 1.89673 117.725 1.89673 117.755C1.89673 117.785 1.92099 117.809 1.95092 117.809Z" fill="black" fill-opacity="0.5"/>
<path d="M0.0541918 104.342C0.0903196 104.342 0.108384 104.324 0.108384 104.288C0.108384 104.251 0.0903196 104.233 0.0541918 104.233C0.0180639 104.215 0 104.251 0 104.288C0 104.324 0.0180639 104.342 0.0541918 104.342Z" fill="black" fill-opacity="0.5"/>
<path d="M0.0541918 90.7482C0.0903196 90.7482 0.108384 90.7302 0.108384 90.6941C0.108384 90.658 0.0903196 90.6399 0.0541918 90.6399C0.0180639 90.6219 0 90.658 0 90.676C0 90.7121 0.0180639 90.7482 0.0541918 90.7482Z" fill="black" fill-opacity="0.5"/>
<path d="M1.95092 77.2815C1.98705 77.2815 2.00511 77.2635 2.00511 77.2274C2.00511 77.1913 1.98705 77.1732 1.95092 77.1732C1.91479 77.1732 1.89673 77.1913 1.89673 77.2274C1.89673 77.2454 1.91479 77.2815 1.95092 77.2815Z" fill="black" fill-opacity="0.5"/>
<path d="M5.70818 64.1936C5.73811 64.1936 5.76237 64.1694 5.76237 64.1395C5.76237 64.1096 5.73811 64.0853 5.70818 64.0853C5.67825 64.0853 5.65399 64.1096 5.65399 64.1395C5.65399 64.1694 5.67825 64.1936 5.70818 64.1936Z" fill="black" fill-opacity="0.5"/>
<path d="M11.2358 51.7738C11.2657 51.7738 11.29 51.7496 11.29 51.7197C11.29 51.6898 11.2657 51.6655 11.2358 51.6655C11.2058 51.6655 11.1816 51.6898 11.1816 51.7197C11.1816 51.7496 11.2058 51.7738 11.2358 51.7738Z" fill="black" fill-opacity="0.5"/>
<path d="M18.4432 40.2383C18.4732 40.2383 18.4974 40.2141 18.4974 40.1842C18.4974 40.1543 18.4732 40.13 18.4432 40.13C18.4133 40.13 18.389 40.1543 18.389 40.1842C18.389 40.2141 18.4133 40.2383 18.4432 40.2383Z" fill="black" fill-opacity="0.5"/>
<path d="M27.2043 29.8222C27.2404 29.8222 27.2585 29.8041 27.2585 29.768C27.2585 29.7319 27.2404 29.7139 27.2043 29.7139C27.1681 29.7139 27.1501 29.7319 27.1501 29.768C27.132 29.8041 27.1681 29.8222 27.2043 29.8222Z" fill="black" fill-opacity="0.5"/>
<path d="M37.3201 20.7239C37.35 20.7239 37.3743 20.6996 37.3743 20.6697C37.3743 20.6398 37.35 20.6155 37.3201 20.6155C37.2901 20.6155 37.2659 20.6398 37.2659 20.6697C37.2659 20.6996 37.2901 20.7239 37.3201 20.7239Z" fill="black" fill-opacity="0.5"/>
<path d="M48.5919 13.1239C48.6218 13.1239 48.6461 13.0997 48.6461 13.0698C48.6461 13.0399 48.6218 13.0156 48.5919 13.0156C48.562 13.0156 48.5377 13.0399 48.5377 13.0698C48.5377 13.0997 48.562 13.1239 48.5919 13.1239Z" fill="black" fill-opacity="0.5"/>
<path d="M60.8212 7.16685C60.8573 7.16685 60.8754 7.14879 60.8754 7.11269C60.8754 7.07658 60.8573 7.05853 60.8212 7.05853C60.7851 7.05853 60.767 7.07658 60.767 7.11269C60.767 7.13074 60.7851 7.16685 60.8212 7.16685Z" fill="black" fill-opacity="0.5"/>
<path d="M73.7731 2.94236C73.803 2.94236 73.8272 2.91811 73.8272 2.8882C73.8272 2.85829 73.803 2.83405 73.7731 2.83405C73.7431 2.83405 73.7189 2.85829 73.7189 2.8882C73.7189 2.91811 73.7431 2.94236 73.7731 2.94236Z" fill="black" fill-opacity="0.5"/>
<path d="M87.1765 0.59574C87.2126 0.59574 87.2307 0.577688 87.2307 0.541583C87.2307 0.505479 87.2126 0.487427 87.1765 0.487427C87.1404 0.487427 87.1223 0.505479 87.1223 0.541583C87.1042 0.559636 87.1404 0.59574 87.1765 0.59574Z" fill="black" fill-opacity="0.5"/>
<path d="M100.779 0.126365C100.815 0.126365 100.833 0.108313 100.833 0.0722089C100.833 0.0361044 100.797 0 100.779 0C100.742 0 100.724 0.0180522 100.724 0.0541566C100.724 0.0902611 100.742 0.126365 100.779 0.126365Z" fill="black" fill-opacity="0.5"/>
<path d="M114.308 1.53446C114.345 1.53446 114.363 1.51641 114.363 1.4803C114.363 1.4442 114.345 1.42615 114.308 1.42615C114.272 1.42615 114.254 1.4442 114.254 1.4803C114.254 1.51641 114.272 1.53446 114.308 1.53446Z" fill="black" fill-opacity="0.5"/>
<path d="M127.513 4.83811C127.549 4.83811 127.567 4.82006 127.567 4.78395C127.567 4.74785 127.549 4.7298 127.513 4.7298C127.477 4.7298 127.459 4.74785 127.459 4.78395C127.459 4.80201 127.477 4.83811 127.513 4.83811Z" fill="black" fill-opacity="0.5"/>
<path d="M140.122 9.92869C140.158 9.92869 140.176 9.91064 140.176 9.87453C140.176 9.83843 140.158 9.82037 140.122 9.82037C140.086 9.82037 140.068 9.83843 140.068 9.87453C140.068 9.89258 140.104 9.92869 140.122 9.92869Z" fill="black" fill-opacity="0.5"/>
<path d="M151.918 16.7344C151.954 16.7344 151.972 16.7163 151.972 16.6802C151.972 16.6441 151.954 16.626 151.918 16.626C151.881 16.626 151.863 16.6441 151.863 16.6802C151.845 16.6982 151.881 16.7344 151.918 16.7344Z" fill="black" fill-opacity="0.5"/>
<path d="M162.629 25.0924C162.666 25.0924 162.684 25.0744 162.684 25.0383C162.684 25.0022 162.666 24.9841 162.629 24.9841C162.593 24.9841 162.575 25.0022 162.575 25.0383C162.575 25.0744 162.611 25.0924 162.629 25.0924Z" fill="black" fill-opacity="0.5"/>
<path d="M172.095 34.8766C172.131 34.8766 172.149 34.8586 172.149 34.8225C172.149 34.7864 172.131 34.7683 172.095 34.7683C172.059 34.7683 172.041 34.7864 172.041 34.8225C172.023 34.8586 172.059 34.8766 172.095 34.8766Z" fill="black" fill-opacity="0.5"/>
<path d="M180.097 45.8886C180.133 45.8886 180.151 45.8705 180.151 45.8344C180.151 45.7983 180.133 45.7803 180.097 45.7803C180.061 45.7803 180.043 45.7983 180.043 45.8344C180.025 45.8525 180.061 45.8886 180.097 45.8886Z" fill="black" fill-opacity="0.5"/>
<path d="M186.474 57.9298C186.528 57.9298 186.564 57.8937 186.564 57.8395C186.564 57.7854 186.528 57.7493 186.474 57.7493C186.42 57.7493 186.384 57.7854 186.384 57.8395C186.384 57.8756 186.438 57.9298 186.474 57.9298Z" fill="black" fill-opacity="0.5"/>
<path d="M191.134 70.7104C191.184 70.7104 191.225 70.67 191.225 70.6202C191.225 70.5703 191.184 70.5299 191.134 70.5299C191.084 70.5299 191.044 70.5703 191.044 70.6202C191.044 70.67 191.084 70.7104 191.134 70.7104Z" fill="black" fill-opacity="0.5"/>
<path d="M193.97 83.997C194.025 83.997 194.061 83.9609 194.061 83.9068C194.061 83.8526 194.025 83.8165 193.97 83.8165C193.916 83.8165 193.88 83.8526 193.88 83.9068C193.88 83.9609 193.916 83.997 193.97 83.997Z" fill="black" fill-opacity="0.5"/>
</svg>
